<?xml version="1.0" standalone="no"?>
<!DOCTYPE svg PUBLIC "-//W3C//DTD SVG 1.1//EN" "http://www.w3.org/Graphics/SVG/1.1/DTD/svg11.dtd" >
<svg xmlns="http://www.w3.org/2000/svg">
<metadata></metadata>
<defs>
<font id="univers_lt_std_45_lightBdIt" horiz-adv-x="1138" >
<font-face units-per-em="2048" ascent="1483" descent="-565" />
<missing-glyph horiz-adv-x="569" />
<glyph unicode="&#xfb01;" horiz-adv-x="1251" d="M160 0l174 819h-156l45 215h156l31 142q16 75 42 129.5t73 102t124.5 72.5t184.5 25q79 0 161 -10l-45 -211q-43 6 -61 6q-54 0 -91 -12.5t-55 -36.5t-24.5 -41.5t-11.5 -44.5l-27 -121h190l-45 -215h-190l-174 -819h-301zM815 0l221 1036h303l-221 -1036h-303z M1063 1214l55 265h324l-56 -265h-323z" />
<glyph unicode="&#xfb02;" horiz-adv-x="1251" d="M164 0l174 819h-154l45 215h154l31 142q16 74 42.5 129t73.5 102.5t125 72.5t185 25q77 0 159 -10l-45 -211q-41 6 -59 6q-45 0 -78 -9.5t-51 -22t-30.5 -33.5t-16.5 -35t-8 -35l-27 -121h193l-46 -215h-192l-174 -819h-301zM815 0l315 1481h304l-316 -1481h-303z" />
<glyph horiz-adv-x="2048" />
<glyph horiz-adv-x="2048" />
<glyph unicode="&#xd;" horiz-adv-x="2048" />
<glyph unicode=" "  horiz-adv-x="569" />
<glyph unicode="&#x09;" horiz-adv-x="569" />
<glyph unicode="&#xa0;" horiz-adv-x="569" />
<glyph unicode="!" horiz-adv-x="796" d="M264 0l58 272h260l-58 -272h-260zM375 403l192 1078h275l-256 -1078h-211z" />
<glyph unicode="&#x22;" horiz-adv-x="970" d="M399 920l54 507h272l-164 -507h-162zM793 920l53 507h270l-162 -507h-161z" />
<glyph unicode="#" d="M57 358l49 226h211l97 247h-168l49 226h211l145 370h262l-145 -370h195l145 370h264l-147 -370h170l-49 -226h-211l-97 -247h168l-49 -226h-211l-141 -358h-262l143 358h-197l-141 -358h-264l141 358h-168zM580 584h194l98 247h-194z" />
<glyph unicode="$" d="M128 256q-8 82 15 184h279q-10 -51 -11.5 -88t11.5 -62t27 -40.5t35 -23.5t35.5 -10.5t27.5 -2.5l78 362q-44 13 -77 24.5t-71 27.5t-65 34.5t-54.5 42t-43.5 52.5t-26.5 64t-10 78.5t11.5 94.5q34 159 162 271q41 36 87 63t78 40.5t78.5 23.5t62.5 12t56 6l37 172h113 l-35 -168q100 -8 175 -33t126 -90q27 -34 41 -72.5t14 -81.5t-2.5 -64.5t-9.5 -61.5h-275q4 38 6.5 66t-6 48t-17.5 33t-27 21.5t-35 12.5t-41 7l-76 -364q42 -11 72 -20t67.5 -22.5t63.5 -27t55 -33t47.5 -41t34.5 -50t22.5 -61.5t6 -75t-10.5 -90q-24 -112 -92.5 -195.5 t-151.5 -134.5q-57 -35 -120 -55.5t-99.5 -25t-87.5 -7.5l-45 -205h-108l45 205q-204 -6 -314 121q-50 57 -58 139zM569.5 994.5q-0.5 -18.5 3.5 -33t9 -26t15.5 -21t20 -16.5t24.5 -13.5t26 -10.5t28 -10l70 330q-79 -4 -128 -48t-63 -112q-5 -21 -5.5 -39.5zM657 209 q70 7 127.5 52t75.5 122q14 65 -16.5 105t-114.5 65z" />
<glyph unicode="%" horiz-adv-x="1820" d="M334.5 1011q-4.5 71 15.5 154q7 34 13 56t22 68t35 77.5t53 71t74 64t99.5 42t129.5 17.5q83 0 139.5 -21t85 -54.5t39.5 -84.5t7.5 -101t-17.5 -114q-7 -29 -10 -41.5t-14 -50.5t-21.5 -60.5t-30.5 -60t-41.5 -61t-54.5 -52t-70 -45t-86.5 -28t-105.5 -11.5 q-88 0 -147 29.5t-84.5 82t-30 123.5zM430 -25l1118 1600h154l-1118 -1600h-154zM559.5 1000q14.5 -56 77.5 -56q58 0 99.5 51.5t70.5 188.5q47 217 -66 217q-123 0 -168 -227q-28 -118 -13.5 -174zM1108 218.5q-4 71.5 16 154.5q6 28 9.5 41.5t14 49.5t20.5 58t29.5 57 t40.5 58t53 49.5t68 42.5t85 26.5t104 10.5q69 0 120 -14t81.5 -41t48 -60t21.5 -77t0 -87t-15 -94q-8 -35 -13.5 -56.5t-22.5 -69.5t-36 -80.5t-54 -74.5t-76 -67.5t-102.5 -44t-133.5 -18.5q-88 0 -146.5 30t-83 82.5t-28.5 124zM1332 206q15 -56 79 -56q58 0 98.5 51 t69.5 188q47 217 -66 217q-25 0 -47 -10t-37 -23.5t-29 -36.5t-22 -40.5t-16.5 -44.5t-11 -39t-7.5 -33q-26 -117 -11 -173z" />
<glyph unicode="&#x26;" horiz-adv-x="1593" d="M133 408q35 157 168 290q20 19 40 36.5t40.5 33t35.5 26.5t36.5 24.5t31 19t31.5 18t25 14.5q-62 65 -87 114q-47 95 -24 200q5 26 17.5 55.5t36.5 70t64.5 76t94 66.5t134.5 49.5t177 18.5q92 0 162 -16.5t110.5 -44.5t66 -61t33.5 -71.5t8 -69.5t-7 -61 q-10 -47 -31.5 -91t-46 -76.5t-60.5 -65t-63 -53t-65.5 -43t-56 -31.5t-46.5 -23l236 -301q44 76 72 145t40.5 118t32.5 145h303q-39 -188 -105.5 -328t-188.5 -285l235 -311h-383l-86 137q-58 -37 -96 -59t-106.5 -52.5t-147 -45.5t-166.5 -15q-248 0 -378 119t-87 328z M459 432q-24 -112 38 -179t169 -67q67 0 148.5 32.5t148.5 78.5l-293 379q-182 -105 -211 -244zM735 1192q-9 -41 15.5 -95t46 -80t39.5 -44q172 109 194 215q14 60 -19 97.5t-100 37.5t-115.5 -36t-60.5 -95z" />
<glyph unicode="'" horiz-adv-x="487" d="M354 920l54 507h272l-164 -507h-162z" />
<glyph unicode="(" horiz-adv-x="681" d="M225.5 332q4.5 158 36.5 305q47 217 149.5 438t254.5 475h223q-67 -124 -98.5 -185t-95.5 -196.5t-108 -264t-71 -257.5q-40 -191 -40 -368.5t28 -530.5h-223q-31 155 -45.5 290.5t-10 293.5z" />
<glyph unicode=")" horiz-adv-x="681" d="M70 -252q53 98 76 141.5t78 155.5t87.5 192.5t70.5 194.5t60 219q40 191 40 365.5t-27 533.5h223q101 -502 18 -886q-47 -218 -149 -439.5t-254 -476.5h-223z" />
<glyph unicode="*" d="M340 952l45 217l303 -45l-141 244l213 105l53 -283l182 289l168 -113l-252 -242l322 37l-51 -217l-295 47l139 -252l-213 -104l-57 289l-181 -291l-161 110l243 250z" />
<glyph unicode="+" horiz-adv-x="1196" d="M141 414l56 264h407l88 414h275l-88 -414h407l-55 -264h-408l-88 -414h-274l88 414h-408z" />
<glyph unicode="," horiz-adv-x="569" d="M8 -231l258 503h303l-350 -503h-211z" />
<glyph unicode="-" horiz-adv-x="681" d="M180 426l49 231h508l-49 -231h-508z" />
<glyph unicode="." horiz-adv-x="569" d="M152 0l57 272h260l-57 -272h-260z" />
<glyph unicode="/" horiz-adv-x="909" d="M59 0l869 1470h235l-864 -1470h-240z" />
<glyph unicode="0" d="M197 488q7 105 32 223q11 51 25 101.5t42.5 127t62.5 142.5t87 136t114 119.5t145 81t178 31.5q71 0 130.5 -17.5t99 -47t64.5 -59.5t40 -64q28 -59 40.5 -123t8.5 -165t-31 -229q-19 -91 -44.5 -173t-64 -173t-91 -163.5t-119 -132.5t-156 -93t-193.5 -33 q-107 0 -183.5 40t-118 108t-58.5 163t-10 200zM537 690q-102 -471 90 -471q47 0 89 31t72.5 78.5t56.5 114t42.5 126t30.5 125.5q46 229 38 353q0 22 -3.5 43.5t-14 52.5t-37 50t-65.5 19q-97 0 -168 -122q-35 -65 -67 -160.5t-45.5 -152t-18.5 -87.5z" />
<glyph unicode="1" d="M391 930l62 284q214 84 424 216h264l-303 -1430h-310l236 1112q-150 -99 -373 -182z" />
<glyph unicode="2" d="M51 0l62 289l442 338q169 128 262 217q73 70 101.5 113t39.5 94q17 83 -17.5 132.5t-113.5 49.5q-34 0 -63.5 -10t-50.5 -24t-39.5 -36t-29.5 -39.5t-21 -41t-13.5 -34t-7.5 -24.5h-313q7 31 13 53t21.5 61t42.5 78t64 76q77 76 192.5 116t247.5 40q77 0 141.5 -13.5 t111.5 -38.5t82 -60t52.5 -78t22.5 -93.5t-8 -105.5q-6 -27 -13.5 -51t-23 -56.5t-37.5 -64t-56.5 -73.5t-79 -86t-107.5 -99.5t-140 -116t-177.5 -134.5t-219.5 -155q603 12 688 15l-51 -238h-1004z" />
<glyph unicode="3" d="M127 389h311q-25 -190 146 -190q84 0 145 54.5t80 139.5q13 61 -2.5 103t-41 62.5t-79.5 31.5t-88 12.5t-96 1.5l51 240q34 1 50.5 1.5t52 3.5t55.5 6.5t52 11.5t52 18t45 26.5t40.5 36.5t30 48t21.5 61q16 81 -25.5 125.5t-115.5 44.5q-71 0 -132 -47t-79 -131h-313 q12 44 23 73t40.5 78t71.5 90q163 158 430 158q76 0 138.5 -13.5t106 -36.5t76 -54t50.5 -66t27 -73.5t8.5 -74.5t-7.5 -71q-14 -68 -49.5 -124t-73 -88.5t-87 -58.5t-76.5 -35.5t-58 -17.5q98 -32 152 -88q96 -98 63 -256q-38 -181 -211.5 -301.5t-396.5 -120.5 q-90 0 -181 23t-143 74q-108 108 -63 323z" />
<glyph unicode="4" d="M98 311l60 277l751 842h305l-188 -883h195l-52 -236h-194l-66 -311h-303l66 311h-574zM377 541h360l80 377q16 71 39 157z" />
<glyph unicode="5" d="M139 352h303q-4 -12 -4.5 -29.5t6 -40.5t20 -42.5t42.5 -33t69 -13.5q90 0 165 67.5t104 200.5q13 70 8 127t-42 93t-103 36q-141 0 -211 -144l-297 9l213 845h866l-49 -233h-596l-94 -354q31 23 48.5 34t56 30.5t85 28.5t102.5 9q86 0 156 -30.5t115 -89t61 -143 t-6 -192.5q-16 -76 -49 -148t-87 -139.5t-122 -118.5t-162 -81.5t-200 -30.5q-268 0 -367 156q-57 92 -31 227z" />
<glyph unicode="6" d="M173.5 371.5q0.5 43.5 7 94t12.5 83t13 68.5q1 3 1 4q20 94 42 173t55.5 165t73.5 154.5t95.5 130.5t120.5 104q154 100 350 100q83 0 152 -22t120.5 -65.5t72.5 -117t3 -168.5h-303q11 69 -22 105.5t-99 36.5q-33 0 -63 -9.5t-53 -23.5t-45 -39t-36.5 -46.5t-30 -56 t-24 -57t-19.5 -61t-15.5 -56t-12.5 -53.5q39 31 72.5 52t97.5 42t133 21q77 0 142.5 -27t114.5 -83t65 -141t-6 -202q-27 -120 -82 -209.5t-150 -163.5q-171 -133 -393 -133q-79 0 -142 17t-105 44.5t-71 68t-44.5 82.5t-21.5 93.5t-5.5 95zM489 451q-27 -124 16 -187 t126 -63q78 0 150 61.5t100 194.5q25 115 -13 180t-118 65q-19 0 -42.5 -4.5t-57.5 -20.5t-63.5 -41.5t-57 -73.5t-40.5 -111z" />
<glyph unicode="7" d="M211 0l774 1190h-657l51 237h969l-54 -253l-741 -1174h-342z" />
<glyph unicode="8" d="M147 393q31 149 158 250q39 31 82 54.5t65.5 31.5t63.5 21q-115 39 -165 98q-68 81 -42 207q15 69 59 136.5t114 127.5t176.5 97.5t230.5 37.5q214 0 326 -109.5t77 -277.5q-27 -124 -127.5 -209.5t-220.5 -103.5q30 -9 48.5 -16t50 -23.5t56.5 -44t44 -64.5 q45 -89 20 -213q-27 -127 -120 -223t-221.5 -144.5t-270.5 -48.5t-243.5 56t-143 151t-17.5 209zM457 410q-23 -101 27 -157t132 -56q77 0 151.5 54t98.5 163q20 94 -28 150.5t-133 56.5q-89 0 -159 -60t-89 -151zM614 1051q-16 -78 24 -131.5t122 -53.5q81 0 147 50.5 t84 134.5q18 83 -28 130.5t-123 47.5q-79 0 -144 -49t-82 -129z" />
<glyph unicode="9" d="M129.5 236.5q-9.5 49.5 11.5 111.5h310q-6 -66 25 -102.5t95 -36.5q61 0 110.5 25.5t81 64t56.5 97.5t38.5 111t25.5 120q-132 -99 -279 -99q-73 0 -131 16t-97 43t-66 64.5t-41 77.5t-19 85t-2.5 84.5t10.5 78.5q44 204 209.5 336.5t396.5 132.5q80 0 143.5 -17t106 -44 t72.5 -69.5t46 -84t22 -97.5t5.5 -101t-7.5 -103.5t-14 -94.5t-17 -85q-48 -222 -117 -375.5t-161.5 -240.5t-197.5 -124t-241 -37q-21 0 -36 0.5t-51.5 3.5t-60 10t-63 19t-60.5 31t-51.5 47t-36.5 65.5t-15.5 87zM558 909q0 -28 8.5 -51.5t23.5 -45.5t46 -35t73 -13 q54 0 99 21.5t73.5 58t47 74.5t27.5 79q19 97 -17.5 157t-127.5 60q-101 0 -163.5 -66t-82.5 -159q-3 -17 -5 -34.5t-2 -45.5z" />
<glyph unicode=":" horiz-adv-x="569" d="M156 0l57 274h258l-57 -274h-258zM317 758l58 276h258l-58 -276h-258z" />
<glyph unicode=";" horiz-adv-x="569" d="M-23 -231l259 503h303l-351 -503h-211zM326 758l57 276h258l-57 -276h-258z" />
<glyph unicode="&#x3c;" horiz-adv-x="1196" d="M141 410l58 274l1179 422l-61 -287l-819 -272l702 -273l-59 -288z" />
<glyph unicode="=" horiz-adv-x="1196" d="M90 176l57 264h1090l-57 -264h-1090zM193 651l55 264h1089l-55 -264h-1089z" />
<glyph unicode="&#x3e;" horiz-adv-x="1196" d="M51 -14l60 288l821 273l-705 272l62 287l1001 -422l-57 -274z" />
<glyph unicode="?" horiz-adv-x="1024" d="M285 0l53 246h246l-54 -246h-245zM360 332l41 190q7 30 13.5 48.5t32 55t69.5 76.5l111 101q195 176 219 297q4 20 5 40.5t-7 51.5t-27.5 54t-64 40t-109.5 17q-45 0 -93 -7t-80.5 -15t-109.5 -28l46 213q168 41 354 41q94 0 174 -22t141 -66t87 -120t5 -175 q-22 -110 -100 -196q-85 -93 -133 -129l-139 -105q-94 -72 -123.5 -108t-40.5 -88l-37 -166h-234z" />
<glyph unicode="@" horiz-adv-x="1996" d="M395 721q38 179 136.5 329t232.5 250t294.5 155.5t325.5 55.5q111 0 207 -25t173 -74.5t126.5 -123.5t65.5 -172.5t-10 -220.5q-30 -143 -110.5 -264t-192 -192.5t-228.5 -71.5q-103 0 -141 65q-23 42 -14 96q-131 -174 -310 -174q-120 0 -179.5 84t-29.5 230 q26 120 102 231t187 182.5t223 71.5q106 0 156 -55q25 -29 33 -70l45 92h203l-213 -422q-46 -90 -52 -125q-8 -34 8.5 -52.5t45.5 -18.5q40 0 88 29t94.5 79.5t86 128.5t58.5 166q17 90 11 161t-37 125.5t-74.5 92.5t-102 62.5t-120 35.5t-127.5 11q-110 0 -217.5 -28 t-205.5 -85t-179 -137t-140.5 -190.5t-87.5 -239.5q-32 -147 -6.5 -264t96 -198.5t183.5 -125t256 -43.5q39 0 69.5 1.5t93 12t120.5 29.5t140 58t164 93l50 -92q-192 -121 -350.5 -171t-321.5 -50q-229 0 -388 95.5t-221.5 268t-15.5 394.5zM973.5 581q1.5 -22 8 -38 t24 -28.5t45.5 -12.5q27 0 52.5 12t47 34t34.5 38t29 39q36 53 69.5 122.5t50 112.5t16.5 49q8 39 -12 68t-68 29q-81 0 -172.5 -115.5t-120.5 -253.5q-2 -11 -3.5 -22.5t0 -33.5z" />
<glyph unicode="A" horiz-adv-x="1478" d="M10 0l850 1481h377l199 -1481h-320l-39 319h-585l-179 -319h-303zM625 559h424l-72 631z" />
<glyph unicode="B" horiz-adv-x="1366" d="M139 0l314 1479h553q66 0 111 -2t119.5 -19t119.5 -49q78 -59 97 -145q10 -47 11 -93q0 -39 -8 -77q-31 -143 -133 -222q-12 -10 -35.5 -26.5t-68.5 -40t-86 -33.5v-4q78 -15 132 -51.5t79 -84.5q24 -50 32 -108q2 -20 2 -38q0 -39 -10 -78q-26 -123 -106.5 -212.5 t-184.5 -136.5q-127 -59 -385 -59h-553zM494 238h215h44.5t43.5 1.5t44.5 4t41 7t41 12t36 18t33.5 25t27 33.5t23.5 43.5t15.5 53.5q7 31 7.5 57t-7 46t-16 35.5t-26.5 26.5t-32.5 19.5t-40 13l-42.5 7.5t-47 4.5t-46 1.5h-47h-182zM629 877h221q27 0 43 0.5t47 4 t51.5 10.5t48 21t45.5 33.5t35 50.5t25 70q7 31 7 57q0 28 -8 48q-15 40 -58.5 56t-75 19.5t-86.5 3.5h-215z" />
<glyph unicode="C" horiz-adv-x="1366" d="M194 490q2 104 27 219q74 353 303.5 566.5t540.5 213.5q161 0 272.5 -61t157.5 -173q28 -68 28 -148q0 -52 -12 -110h-323q2 29 2 54q0 63 -14 101q-40 104 -172 105q-86 0 -160.5 -42.5t-130 -118.5t-96.5 -174t-66 -215q-5 -25 -8 -41.5t-9 -57.5t-8 -72 q-1 -16 -0.5 -35t0.5 -41q2 -45 10 -78.5t24.5 -70t41 -59.5t63.5 -38t89 -15q109 0 199.5 70.5t125.5 209.5h334q-13 -47 -24 -77t-34.5 -81t-61 -99t-87.5 -91q-197 -166 -469 -166q-148 0 -256.5 42.5t-169 113t-89.5 168.5q-28 93 -28 191v10z" />
<glyph unicode="D" horiz-adv-x="1478" d="M133 0l313 1477l490 -1q328 0 481 -135q57 -50 93 -118q36 -67 48 -145q10 -62 10 -125q0 -15 -1 -31q-3 -78 -21 -162q-35 -165 -105.5 -300t-163 -224.5t-197 -144.5t-216.5 -75q-91 -16 -270 -16h-461zM506 244q70 -4 125 -4q120 0 204 19.5t160 82.5q160 132 224 418 q18 81 18 152.5t-18 133.5t-62.5 106.5t-112.5 64.5q-76 23 -222 23q-49 0 -105 -3z" />
<glyph unicode="E" horiz-adv-x="1251" d="M152 0l315 1481h991l-51 -242h-674l-76 -352h631l-51 -242h-631l-84 -399h697l-54 -246h-1013z" />
<glyph unicode="F" d="M141 0l314 1479h954l-49 -238h-637l-78 -364h594l-53 -246h-594l-133 -631h-318z" />
<glyph unicode="G" horiz-adv-x="1593" d="M229 717q42 193 133 346.5t216 253.5t278 152.5t322 52.5q152 0 276 -46t188 -141q26 -40 39.5 -83t13.5 -86t-3 -72t-11 -68h-329q7 35 7 66q0 47 -16 84q-48 114 -223 114q-103 0 -190.5 -37.5t-146 -94.5t-104 -135.5t-71 -149t-41.5 -146.5q-20 -98 -20 -178 q0 -137 59 -219q45 -64 120 -95.5t202 -31.5q144 0 248 28l65 312h-287l54 245h604l-158 -739q-72 -23 -125 -36.5t-174.5 -29.5t-257.5 -16q-163 0 -282 26.5t-188 67.5t-118 103q-105 130 -105 335q0 100 25 218z" />
<glyph unicode="H" horiz-adv-x="1478" d="M137 0l316 1481h317l-127 -592h559l127 592h322l-316 -1481h-317l137 649h-563l-137 -649h-318z" />
<glyph unicode="I" horiz-adv-x="569" d="M123 0l315 1485h318l-316 -1485h-317z" />
<glyph unicode="J" d="M102 338q4 47 7.5 72t11.5 69h311q-12 -67 -12 -119v-20q3 -58 35 -90.5t96 -32.5q128 0 186 125q22 50 64 231l192 908h322l-195 -910q-25 -122 -62 -212t-106.5 -172.5t-171.5 -137.5q-119 -63 -299 -63q-87 0 -149 13.5t-116.5 54.5t-84.5 112q-17 38 -25 81 q-5 29 -5 61q0 14 1 30z" />
<glyph unicode="K" horiz-adv-x="1366" d="M137 0l314 1477h317l-135 -637l633 641h370l-684 -664l416 -817h-395l-359 754l-159 -754h-318z" />
<glyph unicode="L" d="M141 0l314 1479h323l-260 -1227h635l-53 -252h-959z" />
<glyph unicode="M" horiz-adv-x="1933" d="M123 0l315 1481h518l84 -1078l568 1078h503l-315 -1481h-315l270 1270l-674 -1270h-262l-125 1270l-270 -1270h-297z" />
<glyph unicode="N" horiz-adv-x="1593" d="M147 0l316 1481h459l307 -1166l248 1166h295l-316 -1481h-436l-311 1229l-263 -1229h-299z" />
<glyph unicode="O" horiz-adv-x="1593" d="M240 719q26 123 71.5 234t120.5 214.5t170.5 178.5t228.5 120t287 45q90 0 170.5 -14.5t167.5 -61.5t139 -124q42 -64 65 -141q23 -76 26 -152q1 -27 1 -52q1 -46 -3 -87q-6 -63 -19 -125q-35 -166 -117 -323.5t-192 -256.5q-72 -65 -155.5 -110t-162.5 -65t-138.5 -28 t-115.5 -8q-153 0 -278.5 50.5t-202.5 152.5q-90 125 -90 319q0 106 27 234zM573 729q-24 -111 -24 -201q0 -126 47 -213q60 -118 242 -118q188 0 307 137q132 155 190 424q23 117 23 201q0 34 -4 63q-17 132 -91 197t-192 65q-174 0 -299 -125q-138 -135 -199 -430z" />
<glyph unicode="P" horiz-adv-x="1251" d="M133 0l313 1477h457q92 0 154 -5t129 -20.5t115 -49.5t81 -87q45 -72 45 -170q0 -50 -12 -107q-28 -128 -100 -232t-172 -161q-123 -70 -350 -70h-215l-123 -575h-322zM618 811h127q31 0 49 0.5t54 5t60 12.5t55.5 24.5t53 39.5t41 59.5t29.5 83.5q7 32 7 58q0 22 -6 40 q-6 19 -13 34t-21.5 25.5t-26.5 18.5t-31.5 12.5t-32.5 7t-34 4t-31.5 1.5h-29.5h-159z" />
<glyph unicode="Q" horiz-adv-x="1593" d="M204 476q-1 26 -1 49q0 47 4 87q6 61 18 117q26 124 75.5 236t127 212.5t174.5 173.5t226.5 115.5t275.5 42.5q144 0 255.5 -48t181 -142.5t89.5 -233.5q7 -48 7 -101q0 -101 -25 -220q-20 -96 -56 -180.5t-69.5 -139t-80 -106.5t-72.5 -74.5t-62 -50.5q98 17 229 17 q51 0 107 -3l-49 -231q-184 4 -365 4q-38 0 -240.5 -11.5t-236.5 -11.5q-114 0 -203.5 29.5t-145 77.5t-93 114.5t-53 134.5t-18.5 143zM534 550q-1 -4 -1 -8q0 -50 7 -95q7 -48 26 -93t48.5 -77t78 -51t110.5 -19q65 0 122.5 19t101.5 50.5t82.5 76.5t66.5 93.5t51 106.5 t38 109t27 106q21 99 23 177v26q0 59 -7 94q-10 42 -28 82q-10 24 -28 46t-46 43.5t-70.5 34.5t-93.5 13q-58 0 -111.5 -15.5t-97 -43.5t-81.5 -67.5t-68 -85.5t-54.5 -100t-42 -109.5t-30.5 -114.5q-10 -48 -16.5 -96t-6.5 -102z" />
<glyph unicode="R" horiz-adv-x="1366" d="M123 0l315 1481h568h49q45 0 76 -1q47 -2 110 -10.5t110 -31t81 -58.5q78 -83 78 -200q0 -40 -9 -84q-59 -277 -387 -363q79 -7 124.5 -34.5t60.5 -71t17 -103.5v-19q0 -52 -7 -112q-17 -217 -17 -276v-11q1 -19 2 -33t4 -26t4.5 -17t6.5 -16.5t6 -13.5h-350 q1 22 10.5 148.5t15.5 233.5q4 64 4 99q0 23 -2 33q-3 24 -14 41t-24 25t-34.5 12.5t-34 5t-34.5 0.5h-279l-127 -598h-323zM614 834h256q112 0 170 40q94 60 119 173q6 30 6 56q0 74 -49 109q-21 17 -52.5 24.5t-60 9t-90.5 1.5h-213z" />
<glyph unicode="S" horiz-adv-x="1366" d="M153 310q1 58 5.5 88t13.5 75h324q0 -2 -1 -5q-5 -24 -7.5 -39.5t-3.5 -47t3.5 -53.5t18.5 -49.5t38 -44.5t65 -29t96 -12q128 0 215.5 56t107.5 150q5 24 6 44t-6.5 36.5t-14.5 28t-26.5 23t-34 19t-46 17t-52.5 15l-63 16.5q-58 15 -105.5 30t-92 32.5t-79.5 36 t-65.5 40.5t-52 46.5t-36.5 52.5q-15 30 -22 62q-6 28 -6 60v10q1 38 10 79q20 94 71 175t133.5 145t205 101t272.5 37q310 0 410 -174q38 -67 39 -160q0 -53 -13 -114h-305q3 24 3 45q0 180 -195 180q-110 0 -188.5 -55t-98.5 -146q-5 -24 -5 -44q1 -59 43 -87 q58 -38 231 -82q5 -1 7 -2q43 -11 73 -19t70 -20t67 -24t60 -28t54 -33.5t43 -40t34 -49t20 -57.5q7 -28 7 -60v-9q-1 -38 -10 -80q-43 -208 -239.5 -344.5t-493.5 -136.5q-117 0 -205.5 22t-140.5 53t-83 81q-32 51 -44 91q-11 37 -11 90v8z" />
<glyph unicode="T" horiz-adv-x="1251" d="M291 1235l53 246h1200l-53 -246h-440l-263 -1235h-319l262 1235h-440z" />
<glyph unicode="U" horiz-adv-x="1593" d="M244 344q-2 25 -1 48q0 36 4 66q7 50 25 134l189 885h317l-190 -902q-9 -42 -14 -71.5t-7 -71.5v-18q1 -29 5 -51q6 -28 23 -59t46.5 -49.5t77.5 -31t112 -12.5q203 0 314 129q33 36 55.5 90.5t44.5 161.5l189 885h309l-197 -924q-27 -127 -87.5 -229t-137.5 -166.5 t-172.5 -107.5t-188 -61t-186.5 -18q-51 0 -100.5 5t-113 21.5t-115.5 43t-99.5 74.5t-73.5 112q-24 53 -28 117z" />
<glyph unicode="V" horiz-adv-x="1478" d="M338 1475h346l141 -1162l635 1162h314l-859 -1475h-346z" />
<glyph unicode="W" horiz-adv-x="2048" d="M344 1475h328l-6 -1108l524 1108h358l25 -1108l475 1108h303l-690 -1479h-352l-29 1130l-528 -1130h-361z" />
<glyph unicode="X" horiz-adv-x="1478" d="M27 0l682 766l-332 715h391l190 -504l428 504h340l-639 -713l353 -768h-389l-211 557l-473 -557h-340z" />
<glyph unicode="Y" horiz-adv-x="1366" d="M346 1475h371l162 -674l454 674h326l-698 -936l-115 -539h-314l115 543z" />
<glyph unicode="Z" horiz-adv-x="1251" d="M55 0l58 270l981 969l-729 -6l51 242h1071l-60 -281l-976 -963l790 13l-51 -244h-1135z" />
<glyph unicode="[" horiz-adv-x="681" d="M66 -252l380 1792h469l-41 -188h-223l-299 -1413h223l-40 -191h-469z" />
<glyph unicode="\" horiz-adv-x="569" d="M373 1470h235l242 -1470h-240z" />
<glyph unicode="]" horiz-adv-x="681" d="M41 -252l41 191h223l299 1413h-223l41 188h469l-381 -1792h-469z" />
<glyph unicode="^" horiz-adv-x="1196" d="M219 541l559 886h240l182 -886h-282l-93 557l-323 -557h-283z" />
<glyph unicode="_" horiz-adv-x="1024" d="M-55 -256l22 102h1024l-22 -102h-1024z" />
<glyph unicode="`" horiz-adv-x="569" d="M293 1495h287l108 -297h-174z" />
<glyph unicode="a" d="M147 285q7 36 23 73.5t47 83.5t87 89.5t130 74.5q141 58 422 58q15 73 15 116q0 11 -1 21q-3 27 -17.5 45.5t-34 26.5t-35 11t-29.5 3q-75 0 -127 -58q-32 -36 -41 -92h-297q35 161 168 244q135 84 331 84q40 0 80 -4.5t91.5 -17t96.5 -41t72 -70.5q32 -52 32 -132 q0 -54 -15 -122l-86 -416q-31 -152 -31 -262h-274q5 84 20 141q-43 -47 -89.5 -80.5t-80.5 -49.5t-74 -25t-58 -10t-44 -1q-171 0 -240 82q-50 62 -50 149q0 37 9 79zM449 319q-4 -17 -3 -33q0 -38 20 -70q29 -44 99 -44q79 0 142 59q46 45 67.5 100t44.5 156q-31 3 -60 3 q-109 0 -189 -36q-102 -44 -121 -135z" />
<glyph unicode="b" horiz-adv-x="1251" d="M123 0l313 1477h303l-121 -568q136 140 324 140q196 -1 292 -147q62 -94 61 -232q0 -77 -19 -168q-24 -112 -68.5 -202.5t-98.5 -149t-119 -98t-128.5 -56t-128.5 -16.5q-216 0 -276 165q-16 -67 -41 -145h-293zM526 526q-16 -76 -16 -136q0 -74 25 -124q46 -88 153 -88 q43 0 80.5 15.5t63.5 37t49 55.5t35.5 59.5t24.5 62t15.5 50t8.5 34.5q5 24 9 46t8 60q2 27 2 49v19q-2 30 -11.5 65.5t-27 59t-50.5 39.5t-78 16q-63 0 -114.5 -28t-81 -64.5t-52 -87.5t-30.5 -80.5t-13 -59.5z" />
<glyph unicode="c" horiz-adv-x="1024" d="M182 518q21 97 57.5 177.5t80 135t96 96.5t101.5 65.5t100.5 38t89 19.5t71.5 5q60 0 115 -13.5t104.5 -42t81 -74t44.5 -109.5q5 -27 5 -57q0 -42 -10 -91h-297q3 30 3 55q0 135 -95 135q-156 0 -229 -330q-23 -109 -22 -185q0 -88 30 -132q26 -35 74 -35q17 0 36 6 t47 23.5t54.5 61.5t44.5 108h299q-10 -39 -20.5 -69.5t-32.5 -74t-59 -85t-87 -76.5q-132 -97 -315 -97q-230 0 -324 138q-62 96 -62 236q0 79 19 171z" />
<glyph unicode="d" horiz-adv-x="1251" d="M174 494q55 254 213.5 404.5t362.5 150.5q191 0 260 -142l120 572h306l-279 -1311q-20 -104 -27 -168h-307l25 150q-22 -28 -32 -39.5t-37.5 -35t-61.5 -42.5q-93 -53 -211 -53q-207 0 -295 136q-56 86 -56 214q0 75 19 164zM468 374q0 -55 14 -99q14 -46 50 -72.5 t91 -26.5q63 0 122 33.5t95 83.5q66 90 102 244q14 64 14 115q0 70 -26 116q-44 82 -148 82q-58 0 -107 -27t-79.5 -64.5t-55.5 -90t-36.5 -90t-20.5 -76.5q-15 -70 -15 -128z" />
<glyph unicode="e" d="M190 494q75 342 320 489q149 86 309 86q59 0 112.5 -12.5t104.5 -39.5t90 -78t58 -120q17 -62 17 -136q0 -108 -36 -243h-694q-5 -23 -7.5 -37t-5 -46.5t0.5 -54.5t12 -50.5t27 -45.5t50 -29.5t75 -12.5q145 0 211 143h276q-38 -133 -145 -225q-69 -59 -171.5 -90 t-218.5 -31q-239 0 -337 129q-67 92 -67 236q0 76 19 168zM520 631h375q4 18 6 34q1 16 3 46q0 5 1 10q0 23 -6 43q-7 24 -20.5 48t-43 37t-71.5 13q-93 0 -155 -65.5t-89 -165.5z" />
<glyph unicode="f" horiz-adv-x="681" d="M154 0l174 819h-154l45 215h154l30 142q16 74 42.5 129t73.5 102.5t125 72.5t185 25q78 0 162 -10l-45 -211q-43 6 -61 6q-45 0 -78.5 -9.5t-51.5 -22t-30.5 -33.5t-16.5 -35t-8 -35l-26 -121h192l-45 -215h-192l-174 -819h-301z" />
<glyph unicode="g" horiz-adv-x="1251" d="M113 -76h290q0 -70 32.5 -106.5t117.5 -36.5q71 0 130 34.5t87 100.5q5 11 9.5 20.5t9 23.5t7 24l8 32t9 36.5t11.5 49.5t14 60q-138 -142 -310 -142q-72 0 -130.5 20t-98 56t-66 84t-37.5 105q-10 50 -10 104v15q2 61 15 124q21 100 68 191t116 163t164 115t203 43 q39 0 72.5 -6.5t56.5 -14.5t44.5 -23.5t32.5 -25.5t24 -29t16.5 -25.5t11.5 -22.5l39 137h284q-38 -115 -69 -256l-162 -764q-17 -79 -49 -143t-70.5 -106.5t-89.5 -74.5t-98.5 -49.5t-104 -28t-100 -13.5t-92.5 -3q-57 0 -102.5 4t-108.5 23t-102.5 52.5t-62.5 98.5 q-14 41 -14 92q0 29 5 62zM504 528q-14 -69 -14 -122q0 -179 153 -179q51 0 93.5 18t71 49t49.5 63t34 69t18.5 57.5t8.5 38.5q11 53 14 100q1 12 1 25q0 36 -7 75q-8 53 -45.5 84.5t-102.5 31.5q-93 0 -167 -76.5t-107 -233.5z" />
<glyph unicode="h" horiz-adv-x="1251" d="M141 0l314 1479h301l-123 -586q20 22 34.5 36t47.5 39.5t65.5 40.5t82 27.5t102.5 12.5q105 0 171.5 -41t98.5 -99q26 -50 26 -129q0 -66 -18 -151l-133 -629h-301l131 618q4 21 6 32t4.5 38t0.5 44t-9.5 41t-22 37.5t-40 23.5t-60.5 10t-69.5 -10.5t-69.5 -33.5 t-61.5 -66t-38.5 -101l-134 -633h-305z" />
<glyph unicode="i" horiz-adv-x="569" d="M133 0l221 1036h303l-221 -1036h-303zM381 1214l55 265h324l-55 -265h-324z" />
<glyph unicode="j" horiz-adv-x="569" d="M-88 -397l43 204h10q32 0 59 11q30 14 47.5 32.5t30.5 47t18 46.5t9 40l225 1054h303l-241 -1130q-16 -76 -44.5 -132t-75.5 -98t-118 -63t-166 -21q-52 0 -100 9zM381 1214l55 265h324l-55 -265h-324z" />
<glyph unicode="k" d="M137 0l316 1481h301l-187 -873l406 432h342l-451 -450l252 -590h-358l-201 563l-119 -563h-301z" />
<glyph unicode="l" horiz-adv-x="569" d="M133 0l316 1481h303l-316 -1481h-303z" />
<glyph unicode="m" horiz-adv-x="1933" d="M139 0l178 840q23 110 31 194h293l-16 -133q142 156 352 156q57 0 103 -10.5t75 -29.5t49.5 -39t32 -44.5t16 -40t7.5 -31.5q143 193 372 193q59 0 108 -14t77.5 -32.5t50.5 -44t30.5 -42t14.5 -33.5q7 -16 11 -36t6 -36q1 -10 0 -23v-18q-1 -26 -2 -38.5t-6 -42 t-6.5 -37.5t-7.5 -39.5t-7 -34.5l-125 -584h-306l129 608q11 48 13 84v14q0 29 -6 59q-8 37 -41.5 57t-89.5 20q-38 0 -70 -10.5t-54.5 -26t-42 -43.5t-31 -51t-23.5 -62t-18 -64t-15 -67l-111 -518h-305l131 614q5 24 7.5 38.5t4.5 41.5t-0.5 44t-10.5 39t-23 34.5 t-40.5 21.5t-60.5 9q-54 0 -96.5 -18.5t-66 -42.5t-41.5 -61.5t-24 -59.5t-12 -52l-129 -608h-305z" />
<glyph unicode="n" horiz-adv-x="1251" d="M137 0l180 850q1 2 7.5 33t14.5 76.5t13 78.5h291l-25 -155q142 180 373 180q72 0 126.5 -19.5t84 -51.5t45 -62.5t19.5 -61.5q4 -25 4 -53q0 -25 -3 -53q-7 -60 -38 -203l-119 -559h-309l137 643q9 51 9 83q0 19 -3 30q-10 38 -41.5 63t-85.5 25q-49 0 -96.5 -21.5 t-79.5 -58.5q-50 -59 -70 -158l-129 -606h-305z" />
<glyph unicode="o" horiz-adv-x="1251" d="M185 270q-7 40 -7 85q0 70 17 153q17 79 48.5 153.5t86.5 148t125.5 128t171.5 88t219 33.5q110 0 194 -28.5t134 -79t80 -119.5q30 -70 29 -153q0 -77 -15 -163q-24 -112 -78 -209.5t-135 -175.5t-197 -123t-252 -45q-112 0 -199.5 34.5t-145.5 102.5t-76 170zM506 506 q-19 -83 -18 -145q0 -65 20 -107q40 -80 154 -80q108 0 182.5 80t116.5 274q16 76 16 135q0 193 -174 193q-63 0 -114 -28.5t-81 -66.5t-53.5 -92.5t-32 -88.5t-16.5 -74z" />
<glyph unicode="p" horiz-adv-x="1251" d="M39 -397l303 1431h295l-23 -147q131 168 351 168q200 0 286 -139q54 -88 54 -214q0 -75 -19 -163q-23 -111 -73 -210t-121 -176t-167.5 -122t-205.5 -45q-186 0 -262 133l-109 -516h-309zM511 354q2 -28 12 -61t28 -56t51.5 -38t79.5 -15q105 0 183 92.5t112 249.5 q9 42 13 82q2 21 2 43t-2 45q-4 48 -18.5 82.5t-48.5 58t-85 23.5q-41 0 -83 -16.5t-87 -54t-83 -110t-59 -171.5q-4 -19 -7.5 -37.5t-6.5 -52.5q-2 -21 -2 -40q0 -12 1 -24z" />
<glyph unicode="q" horiz-adv-x="1251" d="M169 322q-2 23 -2 48q0 72 19 160q30 142 91.5 248.5t139 165t157 86t161.5 27.5q60 0 109 -14.5t76 -32.5t49 -46.5t28.5 -42t14.5 -34.5l43 149h299q0 -2 -22 -88t-27 -110l-263 -1231h-311l111 514q-142 -135 -316 -135q-65 0 -123.5 18.5t-110.5 59t-83 104.5 t-40 154zM494 522q-15 -74 -15 -133q0 -78 27 -129q37 -74 143 -74q56 0 103.5 24t77.5 58.5t54.5 83t36.5 86t21 78.5q7 33 10 65q4 38 4 77q0 40 -10 72q-10 34 -28.5 64t-55 47t-86.5 17q-62 0 -112 -29.5t-82.5 -81t-53 -106t-34.5 -119.5z" />
<glyph unicode="r" horiz-adv-x="796" d="M133 0l166 780q29 144 41 258h285l-37 -198q27 42 53 71.5t73 64.5q46 36 114 52q55 13 122 13q16 0 33 -1l-57 -272q-34 3 -65 3q-47 1 -87 -7q-66 -12 -104.5 -35.5t-65.5 -64.5t-38 -74t-21 -80l-109 -510h-303z" />
<glyph unicode="s" horiz-adv-x="1024" d="M123 299h285q-2 -13 -2 -25q0 -43 24 -75q32 -41 119 -41q77 0 126.5 36.5t59.5 86.5q2 10 2 19q0 27 -18 47q-24 27 -103 50l-176 52q-20 6 -30 9.5t-32.5 12.5t-35.5 16.5t-33.5 21.5t-31.5 28t-24 35.5t-17.5 44.5t-4.5 53.5t7 64.5q32 149 175.5 236.5t346.5 87.5 q109 0 188 -32.5t118 -102.5q27 -48 27 -110q0 -29 -6 -60h-276q2 13 2 26q0 97 -123 97q-62 0 -109 -28t-57 -75q-5 -26 -0.5 -42.5t25 -29t37 -18.5t57.5 -18l176 -52q221 -64 221 -229q0 -28 -6 -59q-15 -69 -58 -131.5t-110.5 -113.5t-167 -81.5t-215.5 -30.5 q-231 0 -327 127q-39 53 -39 135q0 32 6 68z" />
<glyph unicode="t" horiz-adv-x="796" d="M178 827l43 201h199l43 203l323 110l-65 -313h246l-43 -201h-246l-100 -467q-7 -47 -10 -81t23.5 -53t90.5 -19q48 0 104 6l-43 -199q-121 -32 -241 -32q-63 0 -110.5 11.5t-75.5 28t-44.5 43.5t-22.5 48.5t-5 54.5t3.5 49t8.5 43l121 567h-199z" />
<glyph unicode="u" horiz-adv-x="1251" d="M207 391l135 643h307l-131 -616q-6 -28 -8 -42t-5 -42t-0.5 -44t10 -38t21.5 -33.5t38.5 -20t58.5 -8.5q32 0 59 6t48 14t39.5 25t31 30.5t24.5 40.5t19 44t15.5 51t13 53t12.5 58l111 522h311l-143 -682q-19 -97 -31.5 -161t-16.5 -85t-6 -30q-6 -40 -8 -76h-295l19 137 q-142 -164 -340 -164q-100 0 -174 39.5t-107 100.5q-29 47 -29 125q0 65 21 153z" />
<glyph unicode="v" d="M233 1034h324l84 -702l387 702h293l-592 -1034h-336z" />
<glyph unicode="w" horiz-adv-x="1820" d="M229 1034h322l24 -780l386 780h333l52 -780l368 780h301l-573 -1034h-330l-51 766l-379 -766h-334z" />
<glyph unicode="x" d="M18 0l465 555l-231 479h358l123 -338l275 338h315l-442 -504l233 -530h-358l-129 379l-291 -379h-318z" />
<glyph unicode="y" d="M211 -393l215 389l-178 1038h327l76 -717l383 717h301l-606 -1016l-213 -411h-305z" />
<glyph unicode="z" horiz-adv-x="1024" d="M66 0l57 266l643 565h-510l43 203h848l-55 -260l-643 -565h544l-45 -209h-882z" />
<glyph unicode="{" horiz-adv-x="681" d="M68 467l38 176q106 11 185 70q49 36 74.5 82.5t40.5 124.5l16 71q10 47 17 76t21 73t29.5 73t41 66t55.5 62t74 51.5t96 43t121.5 29t150.5 16.5l-37 -168q-38 -3 -70 -11.5t-56.5 -19.5t-46 -29.5t-36 -33.5t-27.5 -40t-20.5 -42t-15.5 -45.5t-11.5 -43.5t-9.5 -44 l-16 -74q-12 -59 -29 -106.5t-48.5 -96t-73.5 -83t-106 -58.5t-144 -31q30 -4 42.5 -6t43.5 -9t49.5 -16t42 -26.5t39.5 -40.5q29 -36 38 -86t4.5 -90.5t-16.5 -100.5l-16 -76q-8 -36 -11.5 -56.5t-7 -56.5t0 -57.5t14 -49t31 -44t54.5 -29t81 -14.5l-35 -168 q-144 6 -232.5 36.5t-140.5 92.5q-29 33 -41.5 68t-10.5 107t26 186l16 71q5 24 7.5 36.5t5.5 36.5t2 38t-4.5 35.5t-12.5 35t-24 30.5t-36.5 28t-52.5 21t-69 16z" />
<glyph unicode="|" horiz-adv-x="931" d="M516 -553v2214h217v-2214h-217z" />
<glyph unicode="}" horiz-adv-x="681" d="M-109 -371l35 168q66 3 116 25.5t78 49.5t50 74t30 76.5t19 81.5l17 76q16 83 46.5 152.5t94.5 124.5q43 37 97.5 59.5t84 27.5t80.5 11q-36 3 -58 7t-55 14.5t-59.5 32.5t-48.5 55q-21 31 -30.5 60t-9.5 80.5t15 125.5l17 74q7 32 10 49.5t7.5 49t2 51t-7 45.5t-18 42.5 t-33 33t-51 26t-72.5 12.5l37 168q78 -4 141 -16t108 -28.5t77.5 -42.5t52.5 -51t30 -61.5t13.5 -66t-0.5 -73t-9.5 -74.5t-15.5 -77l-16 -71q-15 -69 -10.5 -119.5t32.5 -85.5q27 -32 75.5 -49.5t86.5 -22.5l-39 -176q-70 -11 -122.5 -35t-81.5 -48.5t-50 -63.5 t-28.5 -63.5t-16.5 -66.5l-16 -71q-13 -61 -22.5 -97.5t-31 -92.5t-47.5 -90.5t-71.5 -76t-103 -66t-141.5 -43.5t-188 -24z" />
<glyph unicode="~" horiz-adv-x="1196" d="M113 354q49 178 159.5 283.5t239.5 105.5q33 0 72 -10t135 -41q200 -66 237 -72q20 -4 43 -4q100 0 146 123h174q-20 -68 -50.5 -130t-78.5 -124t-119.5 -99.5t-155.5 -37.5q-30 0 -83 13t-99 28t-129 43q-23 8 -35 12q-109 35 -137 35q-50 0 -88.5 -35t-58.5 -90h-172z " />
<glyph unicode="&#xa1;" horiz-adv-x="796" d="M199 -389l254 1079h211l-191 -1079h-274zM455 819l59 275h260l-59 -275h-260z" />
<glyph unicode="&#xa2;" d="M222.5 306.5q-6.5 88.5 15.5 205.5q53 243 212 392t396 149q39 0 67 -4l119 256h142l-136 -293q46 -19 78 -47.5t46.5 -63t22 -64.5t5 -68t-5.5 -56t-8 -45h-295q3 18 4.5 34.5t0 47.5t-9.5 52.5t-29.5 38.5t-55.5 17q-44 0 -82 -27.5t-62.5 -64.5t-45 -88t-30 -85.5 t-16.5 -68.5q-13 -64 -17 -122.5t2 -111t31 -83.5t68 -31q15 0 30.5 3.5t38 16.5t42.5 33.5t40 58t33 87.5h299q-33 -111 -72 -172q-71 -116 -198 -176q-138 -65 -297 -52l-127 -278h-139l139 305q-49 15 -91 51.5t-75 100.5t-39.5 152.5z" />
<glyph unicode="&#xa3;" d="M61 0l52 238h149l90 424h-172l47 229h174l39 180q6 31 12.5 55t23 64t38 72t59.5 69t86 66q146 88 342 88q109 0 183 -28t107.5 -63.5t46.5 -97t11.5 -97t-8.5 -95.5h-307q5 44 4.5 83t-26 65t-76.5 26q-133 0 -176 -178l-45 -209h346l-47 -229h-346l-90 -424h540 l-51 -238h-1006z" />
<glyph unicode="&#xa4;" d="M115 346l166 137q-9 25 -13.5 40.5t-10 46.5t-4 66.5t10.5 76.5q26 116 115 231l-111 137l195 160l108 -137q44 20 72.5 31t75 21.5t92.5 10.5q113 0 221 -65l166 137l123 -158l-164 -137q9 -28 12 -41t9 -46t4 -68.5t-11 -75.5q-26 -122 -112 -232l108 -135l-194 -160 l-107 138q-36 -19 -62.5 -30t-77 -22.5t-103.5 -11.5q-117 0 -217 64l-168 -138zM502 713q-19 -90 30.5 -153.5t139.5 -63.5q89 0 167 64t97 153q20 90 -31 153.5t-141 63.5t-166 -63t-96 -154z" />
<glyph unicode="&#xa5;" d="M143 281l33 151h334l31 146h-334l33 151h256l-183 746h371l78 -674l371 674h327l-493 -746h243l-32 -151h-326l-31 -144h326l-33 -151h-323l-62 -283h-311l59 281h-334z" />
<glyph unicode="&#xa6;" horiz-adv-x="933" d="M516 -385v772h217v-772h-217zM516 721v774h217v-774h-217z" />
<glyph unicode="&#xa7;" d="M188 20l56 230q145 -88 274 -88q74 0 129 26t66 82q5 24 -1.5 42.5t-24.5 31.5t-32 19.5t-39 15.5l-165 63q-97 36 -133 112t-19 163q17 78 78.5 149.5t163.5 108.5q-142 65 -107 229q28 132 152 209.5t303 77.5q73 0 143 -13.5t92 -21.5t66 -26l-51 -211 q-161 79 -281 79q-62 0 -96 -24q-35 -27 -41 -64q-14 -67 70 -104l167 -59q196 -69 152 -265q-20 -93 -81.5 -157.5t-141.5 -98.5q154 -90 119 -245q-31 -143 -164 -232.5t-316 -89.5q-166 0 -338 61zM551 750q-7 -35 2.5 -62t33 -44.5t42.5 -27t45 -18.5q79 26 123 73.5 t53 92.5q24 110 -121 137q-157 -43 -178 -151z" />
<glyph unicode="&#xa8;" horiz-adv-x="569" d="M260 1227l51 241h209l-51 -241h-209zM612 1227l52 241h208l-51 -241h-209z" />
<glyph unicode="&#xa9;" horiz-adv-x="1638" d="M184 531q-8 99 17 206q45 213 188 391.5t342 280.5t406 102q125 0 234.5 -39t189 -108.5t133 -166.5t66 -213t-12.5 -247q-45 -211 -187 -389t-342 -281.5t-411 -103.5q-105 0 -199 27.5t-167.5 78t-130.5 121t-87.5 156.5t-38.5 185zM315.5 533q9.5 -96 53.5 -177.5 t109.5 -140.5t157.5 -92t198 -33q177 0 345.5 87.5t287 236.5t155.5 323q20 108 10 204.5t-55 178t-111.5 140t-158.5 91.5t-197 33q-175 0 -342 -86t-286 -235t-156 -326q-20 -108 -10.5 -204zM541 592q2 65 14 133q46 213 191 342t344 129q156 0 237 -81.5t53 -215.5h-209 q5 12 2.5 38t-8.5 52.5t-35 47t-77 20.5q-44 0 -83 -15.5t-65.5 -38t-50 -57t-37 -62t-25.5 -64t-16 -52t-8 -35.5q-30 -157 3 -233q35 -82 136 -82q64 0 121.5 42t79.5 126h215q-8 -27 -14.5 -45t-22 -50t-41.5 -62.5t-61 -57.5q-121 -95 -289 -95q-94 0 -164 25t-109 68 t-61 100.5t-20 122.5z" />
<glyph unicode="&#xaa;" horiz-adv-x="684" d="M242 924q1 25 4 49q14 68 70 124t137 79q92 24 252 24q4 22 5 30t3 29t-2 30t-11.5 22t-23.5 18.5t-39 5.5q-35 0 -67.5 -20.5t-43.5 -69.5h-192q12 58 47.5 99t84 61t94.5 28.5t95 8.5q81 0 135 -18t77.5 -49.5t31 -74t-5.5 -90.5l-53 -249q-19 -89 -19 -158h-178 q5 51 12 86q-26 -28 -48 -46.5t-69 -36.5t-104 -18q-52 0 -90.5 12t-58 31t-32 43.5t-11.5 49.5zM442 993q-8 -37 14 -61.5t66 -24.5q122 0 160 189q-95 6 -162 -20t-78 -83z" />
<glyph unicode="&#xab;" d="M168 516l305 389h270l-276 -389l108 -401h-270zM666 516l305 389h270l-276 -389l108 -401h-270z" />
<glyph unicode="&#xac;" horiz-adv-x="1196" d="M188 651l56 267h1091l-157 -744h-275l103 477h-818z" />
<glyph unicode="&#xad;" horiz-adv-x="681" d="M180 426l49 231h508l-49 -231h-508z" />
<glyph unicode="&#xae;" horiz-adv-x="1638" d="M190.5 491.5q-12.5 115.5 12.5 245.5q34 161 127.5 305.5t220.5 246.5t282 162t308 60q124 0 233 -38.5t189 -108t133.5 -166t66.5 -213t-12 -248.5q-34 -157 -126 -300t-218 -247t-282.5 -165.5t-313.5 -61.5q-125 0 -234.5 39t-188.5 109.5t-132 167.5t-65.5 212.5z M316.5 533q9.5 -97 54 -178.5t110.5 -141t158 -92.5t197 -33q177 0 346 88.5t288 238.5t156 324q20 109 9.5 205.5t-55.5 177.5t-111.5 140t-159 91.5t-197.5 32.5q-174 0 -340.5 -85t-286 -234t-157.5 -328q-21 -109 -11.5 -206zM592 303l186 868h299q21 0 33.5 -0.5 t36.5 -1.5t39.5 -4t38 -8.5t36.5 -14.5t31 -20.5t25.5 -29t15.5 -38.5t6 -50t-8 -62q-10 -46 -29.5 -82t-39 -56.5t-49.5 -37t-46.5 -23t-44.5 -14.5q55 -4 80 -30t24.5 -68.5t-3.5 -98.5q-16 -192 -4 -229h-185q3 24 14.5 147.5t12.5 127.5q-2 40 -16.5 56.5t-57.5 16.5 h-151l-76 -348h-168zM860 791h135q39 0 69.5 12t48 32.5t27 39t13.5 38.5q5 22 5 39.5t-4.5 29.5t-10 21t-15.5 14t-18 8.5t-21 4.5l-19.5 1.5t-18.5 0.5h-140z" />
<glyph unicode="&#xaf;" horiz-adv-x="569" d="M199 1278l28 139h701l-29 -139h-700z" />
<glyph unicode="&#xb0;" horiz-adv-x="819" d="M295 1104q31 144 153.5 245t264.5 101q143 0 224 -101t50 -245q-31 -145 -153 -245.5t-267 -100.5q-143 0 -223 101t-49 245zM506 1104q-12 -57 19 -96t87 -39q58 0 106 39.5t60 95.5q11 56 -20 95.5t-88 39.5q-55 0 -104.5 -39.5t-59.5 -95.5z" />
<glyph unicode="&#xb1;" horiz-adv-x="1196" d="M39 -68l57 267h1090l-58 -267h-1089zM176 573l55 267h408l68 319h274l-68 -319h408l-55 -267h-408l-65 -305h-275l66 305h-408z" />
<glyph unicode="&#xb2;" horiz-adv-x="681" d="M139 584l35 172l283 202q125 86 205 166q47 50 55 95q9 44 -14.5 74t-71.5 30q-58 0 -95.5 -35.5t-52.5 -89.5h-202q7 29 11.5 45t25 51t51.5 64q54 48 131 71t157 23q143 0 214 -64.5t47 -168.5q-15 -73 -64.5 -131.5t-183.5 -163.5q-117 -93 -297 -207q407 7 446 8 l-28 -141h-652z" />
<glyph unicode="&#xb3;" horiz-adv-x="681" d="M184 809h203q-17 -115 96 -115q48 0 90 29t54 88q8 37 -2 62t-26 37.5t-51 19t-57.5 7.5t-64.5 1l31 143q30 1 52.5 2.5t52.5 5.5t52.5 13t44 22.5t35 34.5t19.5 49q10 49 -18 76t-77 27q-51 0 -89 -30.5t-46 -76.5h-202q30 98 84 146q44 39 116 66.5t166 27.5 q76 0 133 -21.5t86 -56t39.5 -75t1.5 -81.5q-32 -146 -221 -194q174 -52 143 -205q-23 -110 -134.5 -182t-254.5 -72q-23 0 -47.5 2.5t-64 9.5t-72.5 26t-51 48q-42 63 -21 166z" />
<glyph unicode="&#xb4;" horiz-adv-x="569" d="M401 1198l234 297h274l-344 -297h-164z" />
<glyph unicode="&#xb5;" horiz-adv-x="1251" d="M51 -434l314 1468h262l-107 -499q-11 -54 -16.5 -91.5t-8 -79t5.5 -68.5t24 -50t46 -34t74 -11q40 0 74.5 11.5t58.5 28t45 46t34 53.5t25.5 63t18 62.5t14.5 62.5l107 506h264l-219 -1034h-225l26 123q-25 -29 -42 -45.5t-52 -42.5t-77.5 -39.5t-92.5 -13.5 q-45 0 -79 9.5t-55 28.5t-30 31.5t-20 32.5l-111 -518h-258z" />
<glyph unicode="&#xb6;" d="M156 946q16 77 50 149t90 138.5t128 116t170.5 79t210.5 29.5h674l-45 -211h-105l-346 -1630h-256l346 1630h-194l-347 -1630h-256l187 870q-47 4 -79 10t-79.5 29t-81.5 62q-115 128 -67 358z" />
<glyph unicode="&#xb7;" horiz-adv-x="569" d="M244 436l59 273h260l-59 -273h-260z" />
<glyph unicode="&#xb8;" horiz-adv-x="569" d="M-53 -399l59 86q80 -37 137 -37q52 0 86.5 22t42.5 56q6 28 -10 51.5t-63 23.5q-36 0 -88 -18l-33 43l170 184h96l-125 -131q46 8 74 8q48 0 80.5 -15t44 -37.5t16.5 -48t-2 -46.5q-11 -53 -45.5 -92t-80.5 -58t-88.5 -27.5t-82.5 -8.5q-102 0 -188 45z" />
<glyph unicode="&#xb9;" horiz-adv-x="681" d="M340 1133l35 172q138 49 274 129h172l-182 -859h-201l142 668q-123 -70 -240 -110z" />
<glyph unicode="&#xba;" horiz-adv-x="751" d="M255 1015.5q1 46.5 9 92.5q33 151 144.5 240.5t273.5 89.5q169 0 240 -91t39 -235q-30 -142 -141 -237t-281 -95q-75 0 -131 19.5t-86.5 52t-49 75t-17.5 89zM467 1106q-43 -199 102 -199q75 0 122.5 50.5t70.5 158.5q44 201 -103 201q-151 0 -192 -211z" />
<glyph unicode="&#xbb;" d="M90 115l277 387l-109 403h270l138 -403l-306 -387h-270zM588 115l276 387l-108 403h270l137 -403l-305 -387h-270z" />
<glyph unicode="&#xbc;" horiz-adv-x="1708" d="M260 1133l35 172q138 49 274 129h172l-182 -859h-201l142 668q-123 -70 -240 -110zM279 -57l1179 1542h170l-1182 -1542h-167zM1034 186l37 166l479 506h201l-117 -530h127l-30 -142h-129l-39 -186h-201l39 186h-367zM1214 324h228l76 321z" />
<glyph unicode="&#xbd;" horiz-adv-x="1708" d="M274 -57l1182 1542h168l-1182 -1542h-168zM287 1133l35 172q138 49 274 129h172l-182 -859h-201l141 668q-124 -71 -239 -110zM1010 0l37 174l284 201q119 84 201 166q50 52 57 94q9 44 -14.5 74t-69.5 30q-59 0 -96.5 -35.5t-52.5 -89.5h-203q16 96 88 160 q102 94 287 94q143 0 213.5 -64.5t48.5 -168.5q-15 -72 -64.5 -130.5t-185.5 -164.5q-75 -61 -295 -207q84 3 447 8l-31 -141h-651z" />
<glyph unicode="&#xbe;" horiz-adv-x="1708" d="M221 809h201q-4 -10 -1.5 -29.5t8 -38.5t29 -33t62.5 -14q47 0 88.5 29t53.5 88q8 37 -1.5 62t-25.5 37.5t-51 19t-57.5 7.5t-65.5 1l31 143q31 1 53.5 2.5t53 5.5t52.5 13t44 22.5t35.5 34.5t19.5 49q10 49 -18 76t-77 27q-51 0 -89.5 -30.5t-47.5 -76.5h-201 q30 98 84 146q44 38 116.5 66t166.5 28q76 0 133 -21.5t86 -56t39.5 -75t1.5 -81.5q-32 -146 -221 -194q174 -52 143 -205q-23 -110 -134.5 -182t-254.5 -72q-23 0 -47.5 2.5t-64 9.5t-72.5 26t-51 48q-42 63 -21 166zM369 -57l1179 1542h168l-1179 -1542h-168zM1010 186 l37 166l479 506h203l-119 -530h127l-31 -142h-127l-39 -186h-203l39 186h-366zM1176 324h227l53 227q11 66 23 94z" />
<glyph unicode="&#xbf;" horiz-adv-x="1024" d="M78 -43q24 117 96 195q87 95 135 131l137 104q96 72 126.5 108.5t41.5 88.5l35 166h232l-41 -191q-7 -30 -13.5 -48.5t-32 -55t-69.5 -76.5l-111 -100q-90 -83 -146.5 -155t-72.5 -142q-4 -20 -5 -40.5t7 -51.5t28 -54t64.5 -40t108.5 -17q45 0 92 6.5t82.5 15 t108.5 27.5l-45 -215q-173 -39 -353 -39q-95 0 -175 22t-140.5 66t-85.5 120t-4 175zM659 836l52 245h245l-51 -245h-246z" />
<glyph unicode="&#xc0;" horiz-adv-x="1478" d="M10 0l850 1481h377l199 -1481h-320l-39 319h-585l-179 -319h-303zM625 559h424l-72 631zM829 1880h287l109 -297h-174z" />
<glyph unicode="&#xc1;" horiz-adv-x="1478" d="M10 0l850 1481h377l199 -1481h-320l-39 319h-585l-179 -319h-303zM625 559h424l-72 631zM938 1583l233 297h275l-344 -297h-164z" />
<glyph unicode="&#xc2;" horiz-adv-x="1478" d="M10 0l850 1481h377l199 -1481h-320l-39 319h-585l-179 -319h-303zM625 559h424l-72 631zM745 1583l289 297h211l150 -297h-183l-102 174l-180 -174h-185z" />
<glyph unicode="&#xc3;" horiz-adv-x="1478" d="M10 0l850 1481h377l199 -1481h-320l-39 319h-585l-179 -319h-303zM625 559h424l-72 631zM709 1599q41 114 122 183t173 69q19 0 43 -5.5t37.5 -10t17.5 -6.5l106 -45q36 -12 68 -12q75 0 117 94h104q-21 -64 -48.5 -109t-74.5 -82q-70 -59 -160 -59q-47 0 -102 22l-82 33 q-60 21 -86 21q-78 0 -129 -93h-106z" />
<glyph unicode="&#xc4;" horiz-adv-x="1478" d="M10 0l850 1481h377l199 -1481h-320l-39 319h-585l-179 -319h-303zM625 559h424l-72 631zM793 1591l51 242h209l-52 -242h-208zM1145 1591l51 242h209l-51 -242h-209z" />
<glyph unicode="&#xc5;" horiz-adv-x="1478" d="M10 0l850 1481h377l199 -1481h-320l-39 319h-585l-179 -319h-303zM625 559h424l-72 631zM897 1712q19 87 91.5 148t158.5 61q88 0 135 -61.5t29 -147.5q-19 -86 -92 -147.5t-160 -61.5q-85 0 -133 61t-29 148zM995 1712q-9 -44 15.5 -76t68.5 -32q46 0 86 32t49 76 q9 45 -16 78t-72 33q-44 0 -83 -32.5t-48 -78.5z" />
<glyph unicode="&#xc6;" horiz-adv-x="2048" d="M-16 0l1132 1477h1120l-51 -240h-686l-22 -365h596l-52 -237h-563l-24 -389h561l-53 -246h-852l22 322h-557l-229 -322h-342zM731 555h402l49 643z" />
<glyph unicode="&#xc7;" horiz-adv-x="1366" d="M221 709q74 353 303.5 566.5t540.5 213.5q161 0 272.5 -61t157.5 -173t16 -258h-323q8 101 -12 155q-40 104 -172 105q-86 0 -160.5 -42.5t-130 -118.5t-96.5 -174t-66 -215q-5 -25 -8 -41.5t-9 -57.5t-7.5 -72t0 -76t9.5 -78.5t24.5 -70t41 -59.5t63.5 -38t89 -15 q109 0 199.5 70.5t125.5 209.5h334q-13 -46 -21.5 -72.5t-34.5 -82t-56 -95.5t-84 -89t-121 -87q-161 -88 -357 -88l-88 -92q46 8 76 8q48 0 80 -15t43.5 -37.5t16 -48t-2.5 -46.5q-11 -53 -45.5 -92t-80.5 -58.5t-88.5 -28t-82.5 -8.5q-102 0 -188 45l61 86q81 -36 135 -36 q52 0 88 21.5t44 55.5q6 28 -11.5 52t-64.5 24q-36 0 -88 -18l-33 43l139 151q-253 25 -366 187q-138 208 -62 551z" />
<glyph unicode="&#xc8;" horiz-adv-x="1251" d="M152 0l315 1481h991l-51 -242h-674l-76 -352h631l-51 -242h-631l-84 -399h697l-54 -246h-1013zM717 1880h287l108 -297h-174z" />
<glyph unicode="&#xc9;" horiz-adv-x="1251" d="M152 0l315 1481h991l-51 -242h-674l-76 -352h631l-51 -242h-631l-84 -399h697l-54 -246h-1013zM825 1583l234 297h274l-344 -297h-164z" />
<glyph unicode="&#xca;" horiz-adv-x="1251" d="M152 0l315 1481h991l-51 -242h-674l-76 -352h631l-51 -242h-631l-84 -399h697l-54 -246h-1013zM633 1583l289 297h211l149 -297h-182l-103 174l-180 -174h-184z" />
<glyph unicode="&#xcb;" horiz-adv-x="1251" d="M152 0l315 1481h991l-51 -242h-674l-76 -352h631l-51 -242h-631l-84 -399h697l-54 -246h-1013zM680 1591l51 242h209l-51 -242h-209zM1032 1591l51 242h209l-51 -242h-209z" />
<glyph unicode="&#xcc;" horiz-adv-x="569" d="M123 0l315 1485h318l-316 -1485h-317zM375 1880h287l108 -297h-174z" />
<glyph unicode="&#xcd;" horiz-adv-x="569" d="M123 0l315 1485h318l-316 -1485h-317zM483 1583l234 297h274l-344 -297h-164z" />
<glyph unicode="&#xce;" horiz-adv-x="569" d="M123 0l315 1485h318l-316 -1485h-317zM291 1583l289 297h211l149 -297h-182l-103 174l-180 -174h-184z" />
<glyph unicode="&#xcf;" horiz-adv-x="569" d="M123 0l315 1485h318l-316 -1485h-317zM338 1591l51 242h209l-51 -242h-209zM690 1591l51 242h209l-51 -242h-209z" />
<glyph unicode="&#xd0;" horiz-adv-x="1478" d="M133 0l154 723h-133l39 178h133l120 576l490 -2q328 0 481 -134q57 -50 93 -118t48 -145.5t9 -156t-21 -161.5q-35 -165 -105.5 -300t-163 -224.5t-197 -144.5t-216.5 -75q-91 -16 -270 -16h-461zM506 244q70 -4 125 -4q120 0 204 19.5t160 82.5q160 132 224 418 q18 81 18 152.5t-18 133.5t-62.5 106.5t-112.5 64.5q-101 30 -327 20l-70 -336h297l-39 -178h-297z" />
<glyph unicode="&#xd1;" horiz-adv-x="1593" d="M147 0l316 1481h459l307 -1166l248 1166h295l-316 -1481h-436l-311 1229l-263 -1229h-299zM766 1599q41 114 122 183t173 69q19 0 43 -5.5t37.5 -10t17.5 -6.5l107 -45q36 -12 67 -12q75 0 117 94h104q-22 -64 -48.5 -109t-73.5 -82q-70 -59 -160 -59q-48 0 -103 22 l-82 33q-60 21 -86 21q-78 0 -129 -93h-106z" />
<glyph unicode="&#xd2;" horiz-adv-x="1593" d="M240 719q26 123 71.5 234t120.5 214.5t170.5 178.5t228.5 120t287 45q90 0 170.5 -14.5t167.5 -61.5t139 -124q42 -64 65 -141t26 -152.5t-2.5 -138.5t-18.5 -125q-35 -166 -117 -323.5t-192 -256.5q-72 -65 -155.5 -110t-162.5 -65t-138.5 -28t-115.5 -8 q-153 0 -278.5 50.5t-202.5 152.5q-140 193 -63 553zM573 729q-58 -265 23 -414q60 -118 242 -118q188 0 307 137q132 155 190 424q32 165 19 264q-17 132 -91 197t-192 65q-174 0 -299 -125q-138 -135 -199 -430zM887 1880h287l108 -297h-174z" />
<glyph unicode="&#xd3;" horiz-adv-x="1593" d="M240 719q26 123 71.5 234t120.5 214.5t170.5 178.5t228.5 120t287 45q90 0 170.5 -14.5t167.5 -61.5t139 -124q42 -64 65 -141t26 -152.5t-2.5 -138.5t-18.5 -125q-35 -166 -117 -323.5t-192 -256.5q-72 -65 -155.5 -110t-162.5 -65t-138.5 -28t-115.5 -8 q-153 0 -278.5 50.5t-202.5 152.5q-140 193 -63 553zM573 729q-58 -265 23 -414q60 -118 242 -118q188 0 307 137q132 155 190 424q32 165 19 264q-17 132 -91 197t-192 65q-174 0 -299 -125q-138 -135 -199 -430zM995 1583l234 297h274l-344 -297h-164z" />
<glyph unicode="&#xd4;" horiz-adv-x="1593" d="M240 719q26 123 71.5 234t120.5 214.5t170.5 178.5t228.5 120t287 45q90 0 170.5 -14.5t167.5 -61.5t139 -124q42 -64 65 -141t26 -152.5t-2.5 -138.5t-18.5 -125q-35 -166 -117 -323.5t-192 -256.5q-72 -65 -155.5 -110t-162.5 -65t-138.5 -28t-115.5 -8 q-153 0 -278.5 50.5t-202.5 152.5q-140 193 -63 553zM573 729q-58 -265 23 -414q60 -118 242 -118q188 0 307 137q132 155 190 424q32 165 19 264q-17 132 -91 197t-192 65q-174 0 -299 -125q-138 -135 -199 -430zM803 1583l289 297h211l149 -297h-182l-103 174l-180 -174 h-184z" />
<glyph unicode="&#xd5;" horiz-adv-x="1593" d="M240 719q26 123 71.5 234t120.5 214.5t170.5 178.5t228.5 120t287 45q90 0 170.5 -14.5t167.5 -61.5t139 -124q42 -64 65 -141t26 -152.5t-2.5 -138.5t-18.5 -125q-35 -166 -117 -323.5t-192 -256.5q-72 -65 -155.5 -110t-162.5 -65t-138.5 -28t-115.5 -8 q-153 0 -278.5 50.5t-202.5 152.5q-140 193 -63 553zM573 729q-58 -265 23 -414q60 -118 242 -118q188 0 307 137q132 155 190 424q32 165 19 264q-17 132 -91 197t-192 65q-174 0 -299 -125q-138 -135 -199 -430zM766 1599q41 114 122 183t173 69q19 0 43 -5.5t37.5 -10 t17.5 -6.5l107 -45q36 -12 67 -12q75 0 117 94h104q-22 -64 -48.5 -109t-73.5 -82q-70 -59 -160 -59q-48 0 -103 22l-82 33q-60 21 -86 21q-78 0 -129 -93h-106z" />
<glyph unicode="&#xd6;" horiz-adv-x="1593" d="M240 719q26 123 71.5 234t120.5 214.5t170.5 178.5t228.5 120t287 45q90 0 170.5 -14.5t167.5 -61.5t139 -124q42 -64 65 -141t26 -152.5t-2.5 -138.5t-18.5 -125q-35 -166 -117 -323.5t-192 -256.5q-72 -65 -155.5 -110t-162.5 -65t-138.5 -28t-115.5 -8 q-153 0 -278.5 50.5t-202.5 152.5q-140 193 -63 553zM573 729q-58 -265 23 -414q60 -118 242 -118q188 0 307 137q132 155 190 424q32 165 19 264q-17 132 -91 197t-192 65q-174 0 -299 -125q-138 -135 -199 -430zM850 1591l51 242h209l-51 -242h-209zM1202 1591l51 242h209 l-51 -242h-209z" />
<glyph unicode="&#xd7;" horiz-adv-x="1196" d="M111 203l415 342l-270 344l229 188l269 -344l415 344l148 -188l-414 -344l268 -342l-229 -189l-268 344l-416 -344z" />
<glyph unicode="&#xd8;" horiz-adv-x="1593" d="M4 0l260 227q-94 183 -28 492q22 106 60.5 206.5t110.5 210.5t165 190t233.5 132.5t308.5 52.5q295 0 436 -151l238 207l76 -97l-240 -213q101 -193 37 -509q-42 -194 -129 -346t-203.5 -247t-254 -143.5t-288.5 -48.5q-298 0 -452 162l-252 -221zM549 481l768 674 q-24 44 -59.5 74t-74.5 41.5t-65 15.5t-51 4q-100 0 -194.5 -50t-161.5 -146q-51 -73 -87.5 -178t-52.5 -187q-33 -154 -22 -248zM580 340q10 -24 22 -41.5t40 -45t78 -43t116 -15.5q374 0 495 569q33 157 23 258z" />
<glyph unicode="&#xd9;" horiz-adv-x="1593" d="M244.5 344q-4.5 64 2.5 114.5t25 133.5l189 885h317l-190 -902q-9 -42 -14 -71.5t-7 -71t4.5 -69.5t23.5 -59t46.5 -49.5t77.5 -31t112 -12.5q203 0 314 129q33 36 55.5 90.5t44.5 161.5l189 885h309l-197 -924q-27 -127 -87.5 -229t-137.5 -166.5t-172.5 -107.5 t-188 -61t-186.5 -18q-51 0 -100.5 5t-113 21.5t-115.5 43t-99.5 74.5t-73.5 112q-23 53 -27.5 117zM887 1880h287l108 -297h-174z" />
<glyph unicode="&#xda;" horiz-adv-x="1593" d="M244.5 344q-4.5 64 2.5 114.5t25 133.5l189 885h317l-190 -902q-9 -42 -14 -71.5t-7 -71t4.5 -69.5t23.5 -59t46.5 -49.5t77.5 -31t112 -12.5q203 0 314 129q33 36 55.5 90.5t44.5 161.5l189 885h309l-197 -924q-27 -127 -87.5 -229t-137.5 -166.5t-172.5 -107.5 t-188 -61t-186.5 -18q-51 0 -100.5 5t-113 21.5t-115.5 43t-99.5 74.5t-73.5 112q-23 53 -27.5 117zM995 1583l234 297h274l-344 -297h-164z" />
<glyph unicode="&#xdb;" horiz-adv-x="1593" d="M244.5 344q-4.5 64 2.5 114.5t25 133.5l189 885h317l-190 -902q-9 -42 -14 -71.5t-7 -71t4.5 -69.5t23.5 -59t46.5 -49.5t77.5 -31t112 -12.5q203 0 314 129q33 36 55.5 90.5t44.5 161.5l189 885h309l-197 -924q-27 -127 -87.5 -229t-137.5 -166.5t-172.5 -107.5 t-188 -61t-186.5 -18q-51 0 -100.5 5t-113 21.5t-115.5 43t-99.5 74.5t-73.5 112q-23 53 -27.5 117zM803 1583l289 297h211l149 -297h-182l-103 174l-180 -174h-184z" />
<glyph unicode="&#xdc;" horiz-adv-x="1593" d="M244.5 344q-4.5 64 2.5 114.5t25 133.5l189 885h317l-190 -902q-9 -42 -14 -71.5t-7 -71t4.5 -69.5t23.5 -59t46.5 -49.5t77.5 -31t112 -12.5q203 0 314 129q33 36 55.5 90.5t44.5 161.5l189 885h309l-197 -924q-27 -127 -87.5 -229t-137.5 -166.5t-172.5 -107.5 t-188 -61t-186.5 -18q-51 0 -100.5 5t-113 21.5t-115.5 43t-99.5 74.5t-73.5 112q-23 53 -27.5 117zM850 1591l51 242h209l-51 -242h-209zM1202 1591l51 242h209l-51 -242h-209z" />
<glyph unicode="&#xdd;" horiz-adv-x="1366" d="M346 1475h371l162 -674l454 674h326l-698 -936l-115 -539h-314l115 543zM883 1583l233 297h275l-344 -297h-164z" />
<glyph unicode="&#xde;" horiz-adv-x="1251" d="M133 0l313 1477h314l-47 -226h143q86 0 144.5 -4t122.5 -17t112 -41.5t82 -72.5q89 -116 49 -309q-26 -119 -96 -222.5t-176 -166.5q-53 -32 -130.5 -49t-122.5 -19t-112 -2h-201l-73 -348h-322zM571 584h127q144 0 199 30q58 30 93.5 85t47.5 112q6 29 7 54t-5 43.5 t-13.5 33.5t-22 25t-26.5 18t-31.5 12.5t-32.5 7t-33.5 4t-31 1.5h-28.5h-159z" />
<glyph unicode="&#xdf;" horiz-adv-x="1366" d="M121 0l235 1104q14 67 42 125.5t56 94t62.5 65.5t52.5 41t35 20q136 70 344 70q70 0 134 -10.5t121 -34.5t96 -59t56 -87.5t3 -116.5q-16 -75 -67 -132.5t-177 -129.5q-18 -10 -28 -16.5t-23.5 -18t-21 -26.5t-11.5 -35q-5 -26 8.5 -49t65.5 -57l139 -97q22 -15 37.5 -27 t35 -32t30.5 -43t19.5 -53t7.5 -69.5t-11 -86.5q-78 -373 -490 -373q-49 0 -85 4t-85 22.5t-77.5 51.5t-43 97t-1.5 153h268q-13 -55 9 -90t71 -35q44 0 86.5 36.5t58.5 108.5q12 55 -3.5 99t-74.5 84l-139 96q-28 19 -45 32t-35 29.5t-27 31.5t-15.5 34.5t-5.5 42.5t7 51 q13 67 57 125.5t150 132.5q34 25 51.5 40t35.5 39.5t24 51.5q11 54 -22.5 90.5t-108.5 36.5q-51 0 -97.5 -18.5t-67.5 -35.5t-36 -34q-57 -61 -74 -168l-229 -1075h-297z" />
<glyph unicode="&#xe0;" d="M147 285q7 36 23 73.5t47 83.5t87 89.5t130 74.5q141 58 422 58q19 92 14 137q-3 27 -17.5 45.5t-34 26.5t-35 11t-29.5 3q-75 0 -127 -58q-32 -36 -41 -92h-297q35 161 168 244q135 84 331 84q40 0 80 -4.5t91.5 -17t96.5 -41t72 -70.5q53 -87 17 -254l-86 -416 q-31 -152 -31 -262h-274q5 84 20 141q-43 -47 -89.5 -80.5t-80.5 -49.5t-74 -25t-58 -10t-44 -1q-171 0 -240 82q-72 89 -41 228zM449 319q-12 -58 17 -102.5t99 -44.5q79 0 142 59q46 45 67.5 100t44.5 156q-147 12 -248.5 -32.5t-121.5 -135.5zM578 1495h286l109 -297 h-174z" />
<glyph unicode="&#xe1;" d="M147 285q7 36 23 73.5t47 83.5t87 89.5t130 74.5q141 58 422 58q19 92 14 137q-3 27 -17.5 45.5t-34 26.5t-35 11t-29.5 3q-75 0 -127 -58q-32 -36 -41 -92h-297q35 161 168 244q135 84 331 84q40 0 80 -4.5t91.5 -17t96.5 -41t72 -70.5q53 -87 17 -254l-86 -416 q-31 -152 -31 -262h-274q5 84 20 141q-43 -47 -89.5 -80.5t-80.5 -49.5t-74 -25t-58 -10t-44 -1q-171 0 -240 82q-72 89 -41 228zM449 319q-12 -58 17 -102.5t99 -44.5q79 0 142 59q46 45 67.5 100t44.5 156q-147 12 -248.5 -32.5t-121.5 -135.5zM686 1198l234 297h274 l-344 -297h-164z" />
<glyph unicode="&#xe2;" d="M147 285q7 36 23 73.5t47 83.5t87 89.5t130 74.5q141 58 422 58q19 92 14 137q-3 27 -17.5 45.5t-34 26.5t-35 11t-29.5 3q-75 0 -127 -58q-32 -36 -41 -92h-297q35 161 168 244q135 84 331 84q40 0 80 -4.5t91.5 -17t96.5 -41t72 -70.5q53 -87 17 -254l-86 -416 q-31 -152 -31 -262h-274q5 84 20 141q-43 -47 -89.5 -80.5t-80.5 -49.5t-74 -25t-58 -10t-44 -1q-171 0 -240 82q-72 89 -41 228zM449 319q-12 -58 17 -102.5t99 -44.5q79 0 142 59q46 45 67.5 100t44.5 156q-147 12 -248.5 -32.5t-121.5 -135.5zM494 1198l288 297h211 l150 -297h-182l-103 174l-180 -174h-184z" />
<glyph unicode="&#xe3;" d="M147 285q7 36 23 73.5t47 83.5t87 89.5t130 74.5q141 58 422 58q19 92 14 137q-3 27 -17.5 45.5t-34 26.5t-35 11t-29.5 3q-75 0 -127 -58q-32 -36 -41 -92h-297q35 161 168 244q135 84 331 84q40 0 80 -4.5t91.5 -17t96.5 -41t72 -70.5q53 -87 17 -254l-86 -416 q-31 -152 -31 -262h-274q5 84 20 141q-43 -47 -89.5 -80.5t-80.5 -49.5t-74 -25t-58 -10t-44 -1q-171 0 -240 82q-72 89 -41 228zM449 319q-12 -58 17 -102.5t99 -44.5q79 0 142 59q46 45 67.5 100t44.5 156q-147 12 -248.5 -32.5t-121.5 -135.5zM457 1214q41 114 122 183 t173 69q19 0 43 -5.5t37.5 -10t17.5 -6.5l106 -45q39 -13 68 -13q74 0 117 95h104q-21 -64 -48.5 -109t-74.5 -82q-70 -59 -159 -59q-48 0 -103 22l-82 33q-60 21 -86 21q-78 0 -129 -93h-106z" />
<glyph unicode="&#xe4;" d="M147 285q7 36 23 73.5t47 83.5t87 89.5t130 74.5q141 58 422 58q19 92 14 137q-3 27 -17.5 45.5t-34 26.5t-35 11t-29.5 3q-75 0 -127 -58q-32 -36 -41 -92h-297q35 161 168 244q135 84 331 84q40 0 80 -4.5t91.5 -17t96.5 -41t72 -70.5q53 -87 17 -254l-86 -416 q-31 -152 -31 -262h-274q5 84 20 141q-43 -47 -89.5 -80.5t-80.5 -49.5t-74 -25t-58 -10t-44 -1q-171 0 -240 82q-72 89 -41 228zM449 319q-12 -58 17 -102.5t99 -44.5q79 0 142 59q46 45 67.5 100t44.5 156q-147 12 -248.5 -32.5t-121.5 -135.5zM545 1227l51 241h209 l-51 -241h-209zM897 1227l51 241h209l-51 -241h-209z" />
<glyph unicode="&#xe5;" d="M147 285q7 36 23 73.5t47 83.5t87 89.5t130 74.5q141 58 422 58q19 92 14 137q-3 27 -17.5 45.5t-34 26.5t-35 11t-29.5 3q-75 0 -127 -58q-32 -36 -41 -92h-297q35 161 168 244q135 84 331 84q40 0 80 -4.5t91.5 -17t96.5 -41t72 -70.5q53 -87 17 -254l-86 -416 q-31 -152 -31 -262h-274q5 84 20 141q-43 -47 -89.5 -80.5t-80.5 -49.5t-74 -25t-58 -10t-44 -1q-171 0 -240 82q-72 89 -41 228zM449 319q-12 -58 17 -102.5t99 -44.5q79 0 142 59q46 45 67.5 100t44.5 156q-147 12 -248.5 -32.5t-121.5 -135.5zM649 1348q19 86 92.5 147 t159.5 61q88 0 134.5 -61t27.5 -147t-92 -147.5t-160 -61.5q-85 0 -133 61t-29 148zM748 1348q-9 -44 16.5 -76.5t69.5 -32.5q46 0 85 32.5t48 76.5q9 45 -16 77.5t-72 32.5q-45 0 -83.5 -32.5t-47.5 -77.5z" />
<glyph unicode="&#xe6;" horiz-adv-x="1820" d="M139 285q6 30 18.5 62.5t38 77.5t73.5 87t112 70q52 23 112.5 37.5t144 20.5t121 7t136.5 2q63 240 -121 240q-40 0 -75 -12t-67.5 -46.5t-47.5 -87.5h-293q26 88 75 152t114 100.5t138 53t158 16.5q68 0 124 -13.5t88 -29t61 -43t38 -40.5t23 -36q30 29 55 48.5t75.5 50 t119.5 47t149 16.5q125 0 212.5 -52.5t127.5 -148.5q19 -46 24.5 -101t-1.5 -116.5t-12.5 -92.5t-16.5 -81h-692q-28 -134 -8 -203q14 -54 57.5 -80t95.5 -26q47 0 83.5 15.5t60.5 44.5t35 47.5t24 47.5h285q-42 -128 -133 -215q-141 -135 -373 -135q-273 0 -354 191 q-36 -34 -61.5 -55.5t-71 -51.5t-89 -48t-105.5 -31t-130 -13q-195 0 -277.5 89.5t-50.5 234.5zM434 299q-14 -66 25.5 -104.5t103.5 -38.5q51 0 109.5 26t97.5 82q48 66 86 209q-27 4 -88 4q-24 0 -43 -1t-59.5 -5.5t-72.5 -16t-67 -30t-59 -51t-33 -74.5zM1186 649h381 q4 16 6.5 30t4.5 39.5t0 46t-10.5 44t-23 39.5t-41.5 26.5t-63 10.5q-180 0 -254 -236z" />
<glyph unicode="&#xe7;" horiz-adv-x="1024" d="M182 518q21 97 57.5 177.5t80 135t96 96.5t101.5 65.5t100.5 38t89 19.5t71.5 5q60 0 115 -13.5t104.5 -42t81 -74t44.5 -109.5t-5 -148h-297q21 190 -92 190q-156 0 -229 -330q-49 -235 8 -317q26 -35 74 -35q17 0 36 6t47 23.5t54.5 61.5t44.5 108h299 q-10 -34 -16.5 -54.5t-23 -58.5t-35.5 -66t-51.5 -62.5t-72.5 -63.5q-75 -54 -143.5 -73.5t-145.5 -23.5l-94 -100q46 8 76 8q48 0 80 -15t43.5 -37.5t16 -48t-2.5 -46.5q-11 -53 -45.5 -92t-80.5 -58.5t-88.5 -28t-82.5 -8.5q-102 0 -188 45l61 86q81 -36 136 -36 q52 0 87.5 21.5t43.5 55.5q6 28 -11.5 52t-64.5 24q-41 0 -86 -18l-35 43l141 155q-25 3 -39.5 5t-49 11.5t-59.5 22.5t-55.5 38.5t-52.5 58.5q-98 149 -43 407z" />
<glyph unicode="&#xe8;" d="M190 494q75 342 320 489q149 86 309 86q59 0 112.5 -12.5t104.5 -39.5t90 -78t58 -120q42 -151 -19 -379h-694q-5 -23 -7.5 -37t-5 -46.5t0 -54.5t12 -50.5t27.5 -45.5t50 -29.5t75 -12.5q145 0 211 143h276q-38 -133 -145 -225q-69 -59 -171.5 -90t-218.5 -31 q-239 0 -337 129q-103 141 -48 404zM520 631h375q4 18 6 34t3.5 46t-5.5 53.5t-20.5 47.5t-43 37t-71.5 13q-93 0 -155 -65.5t-89 -165.5zM578 1495h286l109 -297h-174z" />
<glyph unicode="&#xe9;" d="M190 494q75 342 320 489q149 86 309 86q59 0 112.5 -12.5t104.5 -39.5t90 -78t58 -120q42 -151 -19 -379h-694q-5 -23 -7.5 -37t-5 -46.5t0 -54.5t12 -50.5t27.5 -45.5t50 -29.5t75 -12.5q145 0 211 143h276q-38 -133 -145 -225q-69 -59 -171.5 -90t-218.5 -31 q-239 0 -337 129q-103 141 -48 404zM520 631h375q4 18 6 34t3.5 46t-5.5 53.5t-20.5 47.5t-43 37t-71.5 13q-93 0 -155 -65.5t-89 -165.5zM686 1198l234 297h274l-344 -297h-164z" />
<glyph unicode="&#xea;" d="M190 494q75 342 320 489q149 86 309 86q59 0 112.5 -12.5t104.5 -39.5t90 -78t58 -120q42 -151 -19 -379h-694q-5 -23 -7.5 -37t-5 -46.5t0 -54.5t12 -50.5t27.5 -45.5t50 -29.5t75 -12.5q145 0 211 143h276q-38 -133 -145 -225q-69 -59 -171.5 -90t-218.5 -31 q-239 0 -337 129q-103 141 -48 404zM494 1198l288 297h211l150 -297h-182l-103 174l-180 -174h-184zM520 631h375q4 18 6 34t3.5 46t-5.5 53.5t-20.5 47.5t-43 37t-71.5 13q-93 0 -155 -65.5t-89 -165.5z" />
<glyph unicode="&#xeb;" d="M190 494q75 342 320 489q149 86 309 86q59 0 112.5 -12.5t104.5 -39.5t90 -78t58 -120q42 -151 -19 -379h-694q-5 -23 -7.5 -37t-5 -46.5t0 -54.5t12 -50.5t27.5 -45.5t50 -29.5t75 -12.5q145 0 211 143h276q-38 -133 -145 -225q-69 -59 -171.5 -90t-218.5 -31 q-239 0 -337 129q-103 141 -48 404zM520 631h375q4 18 6 34t3.5 46t-5.5 53.5t-20.5 47.5t-43 37t-71.5 13q-93 0 -155 -65.5t-89 -165.5zM545 1227l51 241h209l-51 -241h-209zM897 1227l51 241h209l-51 -241h-209z" />
<glyph unicode="&#xec;" horiz-adv-x="569" d="M133 0l221 1036h303l-221 -1036h-303zM293 1495h287l108 -297h-174z" />
<glyph unicode="&#xed;" horiz-adv-x="569" d="M133 0l221 1036h303l-221 -1036h-303zM401 1198l234 297h274l-344 -297h-164z" />
<glyph unicode="&#xee;" horiz-adv-x="569" d="M133 0l221 1036h303l-221 -1036h-303zM209 1198l289 297h211l149 -297h-182l-103 174l-180 -174h-184z" />
<glyph unicode="&#xef;" horiz-adv-x="569" d="M133 0l221 1036h303l-221 -1036h-303zM260 1227l51 241h209l-51 -241h-209zM612 1227l52 241h208l-51 -241h-209z" />
<glyph unicode="&#xf0;" horiz-adv-x="1251" d="M185.5 323.5q-0.5 75.5 15.5 159.5q24 110 73.5 199.5t110 146t132.5 95t138 54t129 15.5q150 0 250 -94q-33 88 -85 161t-158 154l-216 -129l-75 70l200 121q-85 49 -180 90l201 184q140 -70 229 -129l185 111l75 -70l-178 -104q33 -29 58.5 -54t61 -69t60.5 -88 t48 -107.5t32.5 -131t6.5 -155.5t-23 -184q-28 -131 -81 -237.5t-132.5 -188.5t-193.5 -127t-253 -45q-218 0 -323 95q-53 45 -80 113.5t-27.5 144zM508 483q-65 -317 160 -317q220 0 293 338q8 38 12.5 73.5t1 82t-18.5 79.5t-53 56.5t-96 23.5q-222 0 -299 -336z" />
<glyph unicode="&#xf1;" horiz-adv-x="1251" d="M137 0l180 850q1 2 7.5 33t14.5 76.5t13 78.5h291l-25 -155q142 180 373 180q72 0 126.5 -19.5t84 -51.5t45 -62.5t19.5 -61.5q8 -46 1 -105.5t-38 -203.5l-119 -559h-309l137 643q15 82 6 113q-10 38 -41.5 63t-85.5 25q-49 0 -96.5 -21.5t-79.5 -58.5q-50 -59 -70 -158 l-129 -606h-305zM514 1214q41 114 122 183t173 69q19 0 43 -5.5t37.5 -10t17.5 -6.5l107 -45q39 -13 67 -13q74 0 117 95h105q-21 -64 -48.5 -109t-74.5 -82q-70 -59 -160 -59q-47 0 -102 22l-82 33q-60 21 -86 21q-78 0 -129 -93h-107z" />
<glyph unicode="&#xf2;" horiz-adv-x="1251" d="M185 270q-18 102 10 238q17 79 48.5 153.5t86.5 148t125.5 128t171.5 88t219 33.5q110 0 194 -28.5t134 -79t79.5 -119.5t30 -148.5t-15.5 -167.5q-24 -112 -78 -209.5t-135 -175.5t-197 -123t-252 -45q-112 0 -199.5 34.5t-145.5 102.5t-76 170zM506 506 q-38 -171 2 -251.5t154 -80.5q108 0 182.5 80t116.5 274q69 328 -158 328q-63 0 -114 -28.5t-81 -66.5t-53.5 -92.5t-32 -88.5t-16.5 -74zM635 1495h287l108 -297h-174z" />
<glyph unicode="&#xf3;" horiz-adv-x="1251" d="M185 270q-18 102 10 238q17 79 48.5 153.5t86.5 148t125.5 128t171.5 88t219 33.5q110 0 194 -28.5t134 -79t79.5 -119.5t30 -148.5t-15.5 -167.5q-24 -112 -78 -209.5t-135 -175.5t-197 -123t-252 -45q-112 0 -199.5 34.5t-145.5 102.5t-76 170zM506 506 q-38 -171 2 -251.5t154 -80.5q108 0 182.5 80t116.5 274q69 328 -158 328q-63 0 -114 -28.5t-81 -66.5t-53.5 -92.5t-32 -88.5t-16.5 -74zM743 1198l234 297h274l-344 -297h-164z" />
<glyph unicode="&#xf4;" horiz-adv-x="1251" d="M185 270q-18 102 10 238q17 79 48.5 153.5t86.5 148t125.5 128t171.5 88t219 33.5q110 0 194 -28.5t134 -79t79.5 -119.5t30 -148.5t-15.5 -167.5q-24 -112 -78 -209.5t-135 -175.5t-197 -123t-252 -45q-112 0 -199.5 34.5t-145.5 102.5t-76 170zM506 506 q-38 -171 2 -251.5t154 -80.5q108 0 182.5 80t116.5 274q69 328 -158 328q-63 0 -114 -28.5t-81 -66.5t-53.5 -92.5t-32 -88.5t-16.5 -74zM551 1198l289 297h211l149 -297h-182l-103 174l-180 -174h-184z" />
<glyph unicode="&#xf5;" horiz-adv-x="1251" d="M185 270q-18 102 10 238q17 79 48.5 153.5t86.5 148t125.5 128t171.5 88t219 33.5q110 0 194 -28.5t134 -79t79.5 -119.5t30 -148.5t-15.5 -167.5q-24 -112 -78 -209.5t-135 -175.5t-197 -123t-252 -45q-112 0 -199.5 34.5t-145.5 102.5t-76 170zM506 506 q-38 -171 2 -251.5t154 -80.5q108 0 182.5 80t116.5 274q69 328 -158 328q-63 0 -114 -28.5t-81 -66.5t-53.5 -92.5t-32 -88.5t-16.5 -74zM514 1214q41 114 122 183t173 69q19 0 43 -5.5t37.5 -10t17.5 -6.5l107 -45q39 -13 67 -13q74 0 117 95h105q-21 -64 -48.5 -109 t-74.5 -82q-70 -59 -160 -59q-47 0 -102 22l-82 33q-60 21 -86 21q-78 0 -129 -93h-107z" />
<glyph unicode="&#xf6;" horiz-adv-x="1251" d="M185 270q-18 102 10 238q17 79 48.5 153.5t86.5 148t125.5 128t171.5 88t219 33.5q110 0 194 -28.5t134 -79t79.5 -119.5t30 -148.5t-15.5 -167.5q-24 -112 -78 -209.5t-135 -175.5t-197 -123t-252 -45q-112 0 -199.5 34.5t-145.5 102.5t-76 170zM506 506 q-38 -171 2 -251.5t154 -80.5q108 0 182.5 80t116.5 274q69 328 -158 328q-63 0 -114 -28.5t-81 -66.5t-53.5 -92.5t-32 -88.5t-16.5 -74zM602 1227l51 241h209l-51 -241h-209zM954 1227l52 241h208l-51 -241h-209z" />
<glyph unicode="&#xf7;" horiz-adv-x="1196" d="M131 414l55 264h1092l-55 -264h-1092zM438 8l64 301h305l-64 -301h-305zM602 782l64 301h305l-64 -301h-305z" />
<glyph unicode="&#xf8;" horiz-adv-x="1251" d="M18 -4l201 176q-69 140 -26 334q54 254 228 402.5t421 148.5q203 0 317 -92l184 155l70 -71l-188 -160q16 -27 25.5 -49.5t21.5 -68.5t9.5 -111.5t-19.5 -145.5q-24 -115 -76.5 -212t-132 -173t-192.5 -119t-247 -43q-81 0 -142.5 11.5t-100.5 33t-57.5 36.5t-39.5 38 l-188 -160zM489 399l461 389q-47 68 -147 68q-222 0 -295 -336q-15 -70 -19 -121zM502 276q6 -19 13 -32.5t23.5 -31.5t46 -28t70.5 -10q59 0 107 22t78 53.5t53.5 80t35.5 87t23 89.5q23 118 23 170z" />
<glyph unicode="&#xf9;" horiz-adv-x="1251" d="M207 391l135 643h307l-131 -616q-6 -28 -8 -42t-5 -42t-0.5 -44t10 -38t21.5 -33.5t38.5 -20t58.5 -8.5q32 0 59 6t48 14t39.5 25t31 30.5t24.5 40.5t19 44t15.5 51t13 53t12.5 58l111 522h311l-143 -682q-19 -97 -31.5 -161t-16.5 -85t-6 -30q-6 -40 -8 -76h-295l19 137 q-142 -164 -340 -164q-100 0 -174 39.5t-107 100.5q-53 87 -8 278zM635 1495h287l108 -297h-174z" />
<glyph unicode="&#xfa;" horiz-adv-x="1251" d="M207 391l135 643h307l-131 -616q-6 -28 -8 -42t-5 -42t-0.5 -44t10 -38t21.5 -33.5t38.5 -20t58.5 -8.5q32 0 59 6t48 14t39.5 25t31 30.5t24.5 40.5t19 44t15.5 51t13 53t12.5 58l111 522h311l-143 -682q-19 -97 -31.5 -161t-16.5 -85t-6 -30q-6 -40 -8 -76h-295l19 137 q-142 -164 -340 -164q-100 0 -174 39.5t-107 100.5q-53 87 -8 278zM743 1198l234 297h274l-344 -297h-164z" />
<glyph unicode="&#xfb;" horiz-adv-x="1251" d="M207 391l135 643h307l-131 -616q-6 -28 -8 -42t-5 -42t-0.5 -44t10 -38t21.5 -33.5t38.5 -20t58.5 -8.5q32 0 59 6t48 14t39.5 25t31 30.5t24.5 40.5t19 44t15.5 51t13 53t12.5 58l111 522h311l-143 -682q-19 -97 -31.5 -161t-16.5 -85t-6 -30q-6 -40 -8 -76h-295l19 137 q-142 -164 -340 -164q-100 0 -174 39.5t-107 100.5q-53 87 -8 278zM551 1198l289 297h211l149 -297h-182l-103 174l-180 -174h-184z" />
<glyph unicode="&#xfc;" horiz-adv-x="1251" d="M207 391l135 643h307l-131 -616q-6 -28 -8 -42t-5 -42t-0.5 -44t10 -38t21.5 -33.5t38.5 -20t58.5 -8.5q32 0 59 6t48 14t39.5 25t31 30.5t24.5 40.5t19 44t15.5 51t13 53t12.5 58l111 522h311l-143 -682q-19 -97 -31.5 -161t-16.5 -85t-6 -30q-6 -40 -8 -76h-295l19 137 q-142 -164 -340 -164q-100 0 -174 39.5t-107 100.5q-53 87 -8 278zM602 1227l51 241h209l-51 -241h-209zM954 1227l52 241h208l-51 -241h-209z" />
<glyph unicode="&#xfd;" d="M211 -393l215 389l-178 1038h327l76 -717l383 717h301l-606 -1016l-213 -411h-305zM686 1198l234 297h274l-344 -297h-164z" />
<glyph unicode="&#xfe;" horiz-adv-x="1251" d="M2 -397l399 1878h308l-127 -594q129 168 346 168q203 0 287 -141.5t34 -376.5q-32 -151 -108.5 -274.5t-196 -200t-260.5 -76.5q-198 0 -266 133l-109 -516h-307zM473.5 377.5q-1.5 -39.5 7.5 -71.5t26.5 -61t52.5 -45t85 -16q54 0 101 26t77.5 62.5t55.5 86.5t37.5 89 t21.5 78q5 23 8.5 46t5.5 57.5t-0.5 64.5t-12 61.5t-26 53.5t-46.5 36.5t-70 14.5q-50 0 -99 -23t-84 -61q-86 -89 -125 -268q-7 -32 -10.5 -61.5t-5 -69z" />
<glyph unicode="&#xff;" d="M211 -393l215 389l-178 1038h327l76 -717l383 717h301l-606 -1016l-213 -411h-305zM545 1227l51 241h209l-51 -241h-209zM897 1227l51 241h209l-51 -241h-209z" />
<glyph unicode="&#x152;" horiz-adv-x="2048" d="M197.5 478q-1.5 77 4 135t17.5 110q36 169 115.5 314.5t203.5 252.5t273 146q116 30 198.5 36.5t270.5 6.5h981l-49 -238h-604l-78 -369h586l-52 -237h-587l-82 -389h630l-53 -246h-1005q-68 0 -102.5 0.5t-95.5 2.5t-96.5 7t-87 13.5t-86 22.5t-74.5 33.5t-71.5 46.5 t-58.5 62q-47 58 -71.5 135.5t-26 154.5zM525.5 550.5q-0.5 -73.5 15.5 -123.5t46 -88t71 -58.5t89.5 -34.5t103 -16.5t110.5 -4.5t112 2l219 1030q-180 0 -264 -9.5t-162 -43.5q-123 -52 -203 -182.5t-118 -306.5q-19 -91 -19.5 -164.5z" />
<glyph unicode="&#x153;" horiz-adv-x="1933" d="M177 355q1 75 18 157q27 126 84 225t124 158t148 97.5t150 52.5t135 14q72 0 132 -16t94.5 -35t65 -51t40.5 -48t24 -41q22 26 38 42.5t56.5 49t81.5 52t105.5 35.5t136.5 16q47 0 92 -8t98 -28.5t97.5 -64.5t70.5 -108q16 -43 21 -97.5t-3.5 -119.5t-14 -97t-17.5 -91 h-686q-12 -53 -13.5 -99t9.5 -92.5t49 -74t100 -27.5q143 0 211 163h285q-62 -171 -199 -264q-136 -90 -324 -90q-68 0 -122 12.5t-86.5 28t-62 45t-42 48.5t-33.5 55q-112 -107 -216 -149t-230 -42q-114 0 -198 32.5t-129.5 85.5t-68 126t-21.5 148zM502 512 q-38 -178 1 -263t156 -85q64 0 116 25.5t83.5 61t57 90t38 96t23.5 95.5q6 28 9 46t6.5 56.5t1 64.5t-13 59.5t-30.5 54t-56 35t-85 14.5q-231 0 -307 -350zM1307 637h385q5 23 7.5 37.5t5 42t0 45.5t-11 41t-23.5 36.5t-42 23t-63 9.5q-86 0 -153.5 -59t-104.5 -176z" />
<glyph unicode="&#x178;" horiz-adv-x="1366" d="M346 1475h371l162 -674l454 674h326l-698 -936l-115 -539h-314l115 543zM737 1591l51 242h209l-51 -242h-209zM1090 1591l51 242h209l-52 -242h-208z" />
<glyph unicode="&#x2c6;" horiz-adv-x="569" d="M209 1198l289 297h211l149 -297h-182l-103 174l-180 -174h-184z" />
<glyph unicode="&#x2dc;" horiz-adv-x="569" d="M172 1214q41 114 122 183t173 69q19 0 43 -5.5t37.5 -10t17.5 -6.5l107 -45q39 -13 67 -13q74 0 117 95h105q-21 -64 -48.5 -109t-74.5 -82q-70 -59 -160 -59q-48 0 -103 22l-81 33q-60 21 -86 21q-78 0 -129 -93h-107z" />
<glyph unicode="&#x2000;" horiz-adv-x="960" />
<glyph unicode="&#x2001;" horiz-adv-x="1921" />
<glyph unicode="&#x2002;" horiz-adv-x="960" />
<glyph unicode="&#x2003;" horiz-adv-x="1921" />
<glyph unicode="&#x2004;" horiz-adv-x="640" />
<glyph unicode="&#x2005;" horiz-adv-x="480" />
<glyph unicode="&#x2006;" horiz-adv-x="320" />
<glyph unicode="&#x2007;" horiz-adv-x="320" />
<glyph unicode="&#x2008;" horiz-adv-x="240" />
<glyph unicode="&#x2009;" horiz-adv-x="384" />
<glyph unicode="&#x200a;" horiz-adv-x="106" />
<glyph unicode="&#x2010;" horiz-adv-x="681" d="M180 426l49 231h508l-49 -231h-508z" />
<glyph unicode="&#x2011;" horiz-adv-x="681" d="M180 426l49 231h508l-49 -231h-508z" />
<glyph unicode="&#x2012;" horiz-adv-x="681" d="M180 426l49 231h508l-49 -231h-508z" />
<glyph unicode="&#x2013;" horiz-adv-x="1024" d="M92 436l43 199h1024l-43 -199h-1024z" />
<glyph unicode="&#x2014;" horiz-adv-x="2048" d="M358 436l43 199h1516l-43 -199h-1516z" />
<glyph unicode="&#x2018;" horiz-adv-x="569" d="M254 973l336 506h215l-252 -506h-299z" />
<glyph unicode="&#x2019;" horiz-adv-x="569" d="M287 973l252 506h299l-336 -506h-215z" />
<glyph unicode="&#x201a;" horiz-adv-x="569" d="M8 -231l258 503h303l-350 -503h-211z" />
<glyph unicode="&#x201c;" d="M338 973l336 506h213l-252 -506h-297zM737 973l336 506h215l-252 -506h-299z" />
<glyph unicode="&#x201d;" d="M344 973l252 506h299l-338 -506h-213zM745 973l250 506h299l-336 -506h-213z" />
<glyph unicode="&#x201e;" d="M90 -231l252 503h293l-334 -503h-211zM498 -231l252 503h292l-333 -503h-211z" />
<glyph unicode="&#x2022;" horiz-adv-x="716" d="M145 741q32 154 164 261.5t285 107.5t239 -107.5t54 -261.5q-32 -153 -164.5 -261.5t-286.5 -108.5t-238.5 108t-52.5 262z" />
<glyph unicode="&#x2026;" horiz-adv-x="2048" d="M240 0l57 272h260l-57 -272h-260zM895 0l57 272h260l-57 -272h-260zM1550 0l58 272h260l-58 -272h-260z" />
<glyph unicode="&#x202f;" horiz-adv-x="384" />
<glyph unicode="&#x2039;" horiz-adv-x="569" d="M145 516l306 389h270l-277 -389l109 -401h-270z" />
<glyph unicode="&#x203a;" horiz-adv-x="569" d="M45 115l277 387l-109 403h270l138 -403l-306 -387h-270z" />
<glyph unicode="&#x205f;" horiz-adv-x="480" />
<glyph unicode="&#x20ac;" d="M106 446l76 185h105q4 25 28 133h-141l76 184h123q94 233 247.5 360.5t352.5 127.5q88 0 160 -29.5t122 -88.5t66 -148t-8 -209h-260q20 123 -15.5 195.5t-107.5 72.5q-170 0 -285 -281h338l-74 -184h-317l-8 -31q-3 -15 -10.5 -49t-10.5 -53h293l-74 -185h-241 q-7 -54 -0.5 -100t23.5 -80t51 -53.5t81 -19.5q86 0 152.5 71.5t95.5 194.5h264q-49 -226 -199.5 -356t-359.5 -130q-103 0 -179 34.5t-121 98t-65 148.5t-16 192h-162z" />
<glyph unicode="&#x2122;" horiz-adv-x="2048" d="M461 1358l26 123h674l-26 -123h-258l-132 -617h-155l131 617h-260zM1069 741l158 740h250l34 -541l277 541h242l-158 -740h-152l135 635l-327 -635h-127l-55 635l-136 -635h-141z" />
<glyph unicode="&#xe000;" horiz-adv-x="1034" d="M0 0v1034h1034v-1034h-1034z" />
</font>
</defs>
</svg>
